<svg width="62" height="64" viewBox="0 0 62 64" fill="none" xmlns="http://www.w3.org/2000/svg">
<g clip-path="url(#clip0_208_206)">
<path d="M29.1745 4.91089C36.3589 4.91089 43.2491 7.7649 48.3293 12.8451C53.4095 17.9252 56.2635 24.8154 56.2635 31.9999C56.2635 39.1843 53.4095 46.0745 48.3293 51.1547C43.2491 56.2348 36.3589 59.0888 29.1745 59.0888C24.3375 58.9979 19.6123 57.6182 15.4863 55.0921C16.3348 53.254 16.8056 51.2642 16.8708 49.2407C16.8441 46.2254 15.8895 43.2915 14.1368 40.8378C12.3842 38.3841 9.91848 36.5296 7.07489 35.5264C8.57239 33.4125 9.41705 30.9057 9.50428 28.3166C9.39336 24.8846 7.96155 21.6279 5.50754 19.226C7.79374 14.9265 11.2008 11.3257 15.3674 8.80552C19.5341 6.2853 24.305 4.93953 29.1745 4.91089ZM29.1745 -0.000131071C23.1143 -0.00295101 17.1776 1.71376 12.0542 4.95058C6.93076 8.1874 2.83087 12.8115 0.230808 18.2856C0.0103511 18.8108 -0.0323957 19.3937 0.10908 19.9454C0.250556 20.4972 0.568499 20.9876 1.01448 21.3419C2.07938 22.1228 2.95063 23.1379 3.56102 24.309C4.1714 25.48 4.50459 26.7756 4.53488 28.0957C4.56517 29.4159 4.29175 30.7254 3.73572 31.9232C3.17969 33.121 2.35591 34.175 1.32795 35.0039C0.934346 35.3103 0.643386 35.7293 0.493796 36.2052C0.344206 36.681 0.34308 37.1911 0.490567 37.6676C0.638055 38.1441 0.927162 38.5644 1.31941 38.8726C1.71166 39.1807 2.18845 39.3621 2.68632 39.3925C5.19717 39.5333 7.55772 40.6343 9.27915 42.4676C11.0006 44.3009 11.951 46.7259 11.9337 49.2407C11.9355 51.2311 11.3244 53.1738 10.1835 54.8048C9.84392 55.333 9.71968 55.9713 9.83629 56.5884C9.9529 57.2054 10.3015 57.7544 10.8104 58.1223C14.9295 61.0106 19.6716 62.8869 24.6518 63.5991C29.632 64.3113 34.7099 63.8392 39.4735 62.2213C44.237 60.6033 48.552 57.885 52.0682 54.2869C55.5843 50.6889 58.2026 46.3125 59.7106 41.513C61.2185 36.7135 61.5736 31.626 60.747 26.6635C59.9204 21.7011 57.9354 17.0034 54.9531 12.9518C51.9708 8.90024 48.0753 5.60888 43.5827 3.34488C39.0901 1.08087 34.1269 -0.0919816 29.0961 -0.0784983L29.1745 -0.000131071Z" fill="#AFAFAF"/>
<path d="M21.7823 17.2406C22.7599 17.2406 23.7155 17.5309 24.528 18.0745C25.3404 18.6182 25.9732 19.3908 26.3461 20.2945C26.719 21.1981 26.8152 22.1922 26.6226 23.1506C26.43 24.109 25.9572 24.9887 25.2641 25.6781C24.571 26.3675 23.6888 26.8357 22.7294 27.0232C21.77 27.2107 20.7765 27.1092 19.8748 26.7315C18.9731 26.3538 18.2039 25.717 17.6645 24.9016C17.1252 24.0863 16.84 23.1292 16.8452 22.1516C16.8417 21.5035 16.9672 20.8612 17.2144 20.2621C17.4616 19.6629 17.8255 19.119 18.2851 18.6619C18.7446 18.2049 19.2904 17.8438 19.8908 17.5998C20.4913 17.3558 21.1343 17.2337 21.7823 17.2406ZM21.7823 12.3296C19.8334 12.3296 17.9284 12.9078 16.3083 13.9911C14.6882 15.0744 13.426 16.614 12.6813 18.4151C11.9367 20.2161 11.7432 22.1976 12.1254 24.1087C12.5075 26.0197 13.448 27.7745 14.8279 29.1507C16.2078 30.5269 17.965 31.4628 19.8771 31.8399C21.7892 32.2169 23.7702 32.0181 25.5692 31.2688C27.3683 30.5194 28.9045 29.253 29.9835 27.6301C31.0625 26.0071 31.6357 24.1005 31.6305 22.1516C31.6167 19.5464 30.5739 17.0522 28.7293 15.2124C26.8846 13.3726 24.3876 12.3364 21.7823 12.3296Z" fill="#AFAFAF"/>
<path d="M42.3946 34.4555C42.9496 34.4503 43.4936 34.6105 43.9572 34.9156C44.4208 35.2207 44.7831 35.657 44.9979 36.1688C45.2127 36.6806 45.2702 37.2447 45.1632 37.7894C45.0562 38.334 44.7895 38.8344 44.397 39.2269C44.0045 39.6193 43.5041 39.8861 42.9595 39.9931C42.4149 40.1001 41.8507 40.0426 41.3389 39.8278C40.8271 39.613 40.3909 39.2507 40.0857 38.7871C39.7806 38.3234 39.6204 37.7794 39.6256 37.2244C39.6026 36.8548 39.6586 36.4846 39.7896 36.1383C39.9206 35.7919 40.1238 35.4774 40.3857 35.2155C40.6475 34.9537 40.962 34.7505 41.3084 34.6195C41.6547 34.4884 42.025 34.4325 42.3946 34.4555ZM42.3946 29.5444C40.8693 29.5444 39.3784 29.9971 38.1106 30.845C36.8427 31.6929 35.855 32.898 35.2726 34.3076C34.6901 35.7172 34.539 37.268 34.8385 38.7636C35.1379 40.2591 35.8745 41.6322 36.9548 42.7089C38.0351 43.7855 39.4107 44.5174 40.9072 44.8118C42.4038 45.1062 43.9541 44.9498 45.3617 44.3626C46.7694 43.7753 47.9711 42.7835 48.8147 41.5128C49.6583 40.2421 50.1059 38.7497 50.1007 37.2244C50.0604 35.1957 49.2347 33.2617 47.7975 31.8293C46.3602 30.3969 44.4234 29.5779 42.3946 29.5444Z" fill="#AFAFAF"/>
<path d="M26.7195 44.3298C27.0405 44.3226 27.3596 44.3806 27.6576 44.5002C27.9556 44.6197 28.2262 44.7984 28.4532 45.0254C28.6803 45.2525 28.859 45.5231 28.9785 45.8211C29.0981 46.1191 29.156 46.4382 29.1489 46.7592C29.1741 47.0932 29.13 47.4289 29.0192 47.7451C28.9085 48.0613 28.7335 48.3511 28.5054 48.5965C28.2772 48.8418 28.0008 49.0373 27.6935 49.1706C27.3861 49.304 27.0545 49.3723 26.7195 49.3714C26.3812 49.3757 26.0457 49.31 25.734 49.1785C25.4223 49.0471 25.1411 48.8526 24.9081 48.6073C24.6751 48.362 24.4953 48.0713 24.38 47.7532C24.2646 47.4352 24.2163 47.0968 24.2379 46.7592C24.2342 46.4347 24.2962 46.1128 24.4203 45.8129C24.5444 45.513 24.7279 45.2414 24.9598 45.0144C25.1917 44.7874 25.4672 44.6097 25.7696 44.492C26.072 44.3744 26.3952 44.3192 26.7195 44.3298ZM26.7195 39.3926C25.2552 39.3875 23.8223 39.8173 22.6026 40.6276C21.3829 41.4379 20.4313 42.5923 19.8685 43.9441C19.3057 45.296 19.1571 46.7846 19.4416 48.2211C19.726 49.6575 20.4306 50.9772 21.466 52.0126C22.5015 53.0481 23.8211 53.7527 25.2576 54.0371C26.6941 54.3215 28.1826 54.1729 29.5345 53.6102C30.8864 53.0474 32.0407 52.0958 32.8511 50.8761C33.6614 49.6564 34.0912 48.2235 34.086 46.7592C34.0724 44.8097 33.2919 42.9439 31.9133 41.5654C30.5348 40.1868 28.669 39.4063 26.7195 39.3926Z" fill="#AFAFAF"/>
<path d="M41.4767 18.1552C41.8745 18.1552 42.2634 18.2732 42.5941 18.4942C42.9249 18.7152 43.1827 19.0294 43.335 19.3969C43.4872 19.7644 43.527 20.1689 43.4494 20.559C43.3718 20.9492 43.1802 21.3076 42.8989 21.5889C42.6176 21.8702 42.2592 22.0618 41.8691 22.1394C41.4789 22.217 41.0745 22.1772 40.7069 22.025C40.3394 21.8727 40.0252 21.6149 39.8042 21.2841C39.5832 20.9534 39.4652 20.5645 39.4652 20.1666C39.4617 19.9015 39.5113 19.6384 39.6112 19.3928C39.711 19.1471 39.859 18.924 40.0465 18.7365C40.234 18.549 40.4572 18.401 40.7028 18.3012C40.9484 18.2013 41.2115 18.1517 41.4767 18.1552ZM41.4767 13.2442C40.1064 13.239 38.7655 13.6406 37.6237 14.3981C36.4818 15.1556 35.5905 16.2349 35.0625 17.4994C34.5346 18.7638 34.3938 20.1565 34.6579 21.5011C34.9221 22.8456 35.5793 24.0815 36.5464 25.0522C37.5134 26.023 38.7469 26.6849 40.0904 26.9541C41.4339 27.2233 42.8271 27.0878 44.0936 26.5646C45.36 26.0414 46.4427 25.1542 47.2045 24.0152C47.9663 22.8763 48.373 21.5369 48.373 20.1666C48.3594 18.3394 47.6293 16.5905 46.3396 15.2959C45.05 14.0014 43.3038 13.2647 41.4767 13.2442Z" fill="#AFAFAF"/>
</g>
<defs>
<clipPath id="clip0_208_206">
<rect width="61.1527" height="64" fill="white" transform="translate(-0.00390625)"/>
</clipPath>
</defs>
</svg>
