<svg width="55" height="64" viewBox="0 0 55 64" fill="none" xmlns="http://www.w3.org/2000/svg">
<g clip-path="url(#clip0_208_188)">
<path d="M29.5461 32C28.8948 32 28.2703 32.2587 27.8098 32.7192C27.3493 33.1797 27.0906 33.8043 27.0906 34.4555C27.0906 35.1068 27.3493 35.7313 27.8098 36.1918C28.2703 36.6523 28.8948 36.911 29.5461 36.911H39.3942C40.0455 36.911 40.67 36.6523 41.1305 36.1918C41.591 35.7313 41.8497 35.1068 41.8497 34.4555C41.8497 33.8043 41.591 33.1797 41.1305 32.7192C40.67 32.2587 40.0455 32 39.3942 32H29.5461ZM5.77465 32C4.25469 32.0136 2.80084 32.6235 1.72602 33.6983C0.651199 34.7731 0.0413427 36.227 0.02771 37.7469V58.2531C0.0413427 59.773 0.651199 61.2269 1.72602 62.3017C2.80084 63.3765 4.25469 63.9864 5.77465 64H46.7869C48.7222 63.9284 50.5585 63.1257 51.9255 61.7539C53.2925 60.382 54.0886 58.5429 54.1534 56.6073V43.5461C54.1534 42.8949 53.8947 42.2703 53.4342 41.8098C52.9737 41.3493 52.3492 41.0906 51.6979 41.0906C51.0467 41.0906 50.4221 41.3493 49.9616 41.8098C49.5011 42.2703 49.2424 42.8949 49.2424 43.5461V56.6073C49.1146 57.1591 48.8842 57.6819 48.5632 58.1486C48.365 58.4371 48.0999 58.6733 47.7906 58.837C47.4813 59.0008 47.1369 59.0872 46.7869 59.089H5.77465C5.66389 59.0926 5.55357 59.0735 5.45051 59.0328C5.34744 58.992 5.25384 58.9306 5.17548 58.8522C5.09712 58.7739 5.03568 58.6803 4.99495 58.5772C4.95423 58.4741 4.9351 58.3638 4.93873 58.2531V37.7469C4.93099 37.6352 4.94731 37.523 4.98658 37.4181C5.02586 37.3132 5.08717 37.2179 5.16639 37.1387C5.24561 37.0595 5.3409 36.9981 5.44583 36.9589C5.55075 36.9196 5.66288 36.9033 5.77465 36.911H14.7869C15.4381 36.911 16.0627 36.6523 16.5232 36.1918C16.9837 35.7313 17.2424 35.1068 17.2424 34.4555C17.2424 33.8043 16.9837 33.1797 16.5232 32.7192C16.0627 32.2587 15.4381 32 14.7869 32H5.77465Z" fill="#AFAFAF"/>
<path d="M45.5583 43.0757C43.2786 43.0825 41.0939 43.9894 39.4795 45.5989C37.8651 47.2084 36.9516 49.3904 36.9379 51.67C37.1155 52.1833 37.4487 52.6284 37.8912 52.9435C38.3336 53.2585 38.8633 53.4278 39.4064 53.4278C39.9496 53.4278 40.4792 53.2585 40.9217 52.9435C41.3641 52.6284 41.6974 52.1833 41.875 51.67C41.875 50.6931 42.2631 49.7563 42.9538 49.0655C43.6446 48.3748 44.5814 47.9867 45.5583 47.9867C46.5351 47.9867 47.472 48.3748 48.1627 49.0655C48.8535 49.7563 49.2415 50.6931 49.2415 51.67C49.2415 52.3212 49.5002 52.9458 49.9607 53.4063C50.4212 53.8668 51.0458 54.1255 51.697 54.1255C52.3483 54.1255 52.9729 53.8668 53.4334 53.4063C53.8939 52.9458 54.1526 52.3212 54.1526 51.67C54.1389 49.3949 53.229 47.2168 51.6202 45.608C50.0114 43.9993 47.8334 43.0894 45.5583 43.0757Z" fill="#AFAFAF"/>
<path d="M45.5583 24.6074C43.2648 24.6281 41.0723 25.5537 39.4579 27.1828C37.8435 28.8119 36.9378 31.0127 36.9379 33.3062V51.5919C37.1155 52.1052 37.4487 52.5503 37.8912 52.8654C38.3336 53.1805 38.8633 53.3498 39.4064 53.3498C39.9496 53.3498 40.4792 53.1805 40.9217 52.8654C41.3641 52.5503 41.6974 52.1052 41.875 51.5919V33.3062C41.875 32.3293 42.2631 31.3925 42.9538 30.7017C43.6446 30.011 44.5814 29.6229 45.5583 29.6229C46.5351 29.6229 47.472 30.011 48.1627 30.7017C48.8535 31.3925 49.2415 32.3293 49.2415 33.3062V49.2409C49.2415 49.8921 49.5002 50.5167 49.9607 50.9772C50.4212 51.4377 51.0458 51.6964 51.697 51.6964C52.3483 51.6964 52.9729 51.4377 53.4334 50.9772C53.8939 50.5167 54.1526 49.8921 54.1526 49.2409V33.3062C54.1527 31.0171 53.2506 28.8203 51.6418 27.1919C50.033 25.5635 47.8472 24.6349 45.5583 24.6074Z" fill="#AFAFAF"/>
<path d="M22.3615 4.91102C24.0088 4.8972 25.6425 5.21017 27.1681 5.83181C28.6936 6.45345 30.0808 7.37143 31.2493 8.53263C32.4178 9.69384 33.3444 11.0752 33.9756 12.5969C34.6068 14.1185 34.9299 15.7502 34.9264 17.3976C34.6339 19.7722 33.889 22.0689 32.7321 24.1633C31.2638 27.1231 29.606 29.9852 27.7689 32.7314C25.1566 36.8588 23.5893 38.6612 22.3615 40.2286C20.4242 37.8234 18.6107 35.3212 16.9281 32.7314C15.1004 29.9793 13.4429 27.1179 11.9648 24.1633C10.856 22.1032 10.1469 19.8519 9.87501 17.5282C9.85069 15.8755 10.1561 14.2347 10.7733 12.7014C11.3906 11.1682 12.3073 9.77346 13.47 8.59869C14.6326 7.42392 16.0177 6.49272 17.5444 5.85953C19.0711 5.22635 20.7088 4.9039 22.3615 4.91102ZM22.3615 0C17.7471 0.00688714 13.3233 1.84122 10.058 5.10165C6.79264 8.36209 4.95168 12.7832 4.93787 17.3976C5.16162 20.4781 6.05299 23.4731 7.55011 26.1747C9.10978 29.3143 10.8543 32.3585 12.7746 35.2914C16.6146 41.0906 20.4024 45.7404 20.4024 45.7404C20.6323 46.0289 20.9244 46.2618 21.2568 46.4219C21.5892 46.582 21.9534 46.6652 22.3224 46.6652C22.6913 46.6652 23.0555 46.582 23.3879 46.4219C23.7203 46.2618 24.0124 46.0289 24.2424 45.7404C24.2424 45.7404 28.0301 40.9861 31.844 35.2914C33.7828 32.37 35.5281 29.3245 37.0685 26.1747C38.5774 23.4781 39.4696 20.4804 39.6807 17.3976C39.6671 12.8012 37.8405 8.39579 34.5977 5.13832C31.3549 1.88085 26.9578 0.034384 22.3615 0Z" fill="#AFAFAF"/>
<path d="M2.48322 41.8481C1.83198 41.8481 1.20741 42.1069 0.746912 42.5673C0.286415 43.0278 0.02771 43.6524 0.02771 44.3037C0.02771 44.9549 0.286415 45.5795 0.746912 46.04C1.20741 46.5005 1.83198 46.7592 2.48322 46.7592H21.1608L27.0906 52.7151V61.5445C27.2682 62.0578 27.6014 62.5029 28.0439 62.818C28.4863 63.133 29.016 63.3023 29.5591 63.3023C30.1023 63.3023 30.6319 63.133 31.0744 62.818C31.5168 62.5029 31.8501 62.0578 32.0277 61.5445V51.6702C32.0054 51.0248 31.7448 50.4106 31.2963 49.9461L23.9036 42.449C23.4439 41.9965 22.8246 41.7432 22.1795 41.7437L2.48322 41.8481Z" fill="#AFAFAF"/>
<path d="M22.3606 14.7592C23.0943 14.7592 23.8115 14.9768 24.4215 15.3843C25.0315 15.7919 25.5069 16.3713 25.7877 17.0491C26.0684 17.7269 26.1419 18.4727 25.9988 19.1923C25.8556 19.9118 25.5023 20.5728 24.9836 21.0915C24.4648 21.6103 23.8039 21.9636 23.0843 22.1067C22.3648 22.2498 21.6189 22.1764 20.9411 21.8956C20.2633 21.6149 19.684 21.1394 19.2764 20.5294C18.8688 19.9194 18.6513 19.2022 18.6513 18.4686C18.6442 17.9795 18.7354 17.494 18.9193 17.0408C19.1032 16.5876 19.3762 16.1758 19.722 15.83C20.0679 15.4841 20.4796 15.2111 20.9328 15.0272C21.3861 14.8433 21.8716 14.7522 22.3606 14.7592ZM22.3606 9.84818C20.6546 9.84301 18.9854 10.3442 17.5643 11.2883C16.1433 12.2323 15.0343 13.5769 14.3778 15.1516C13.7214 16.7263 13.5469 18.4604 13.8766 20.1343C14.2062 21.8082 15.0252 23.3466 16.2297 24.5548C17.4343 25.763 18.9702 26.5867 20.6431 26.9214C22.316 27.2561 24.0507 27.087 25.6273 26.4353C27.204 25.7836 28.5519 24.6787 29.5003 23.2605C30.4487 21.8424 30.9549 20.1747 30.9549 18.4686C30.9481 16.1889 30.0413 14.0042 28.4317 12.3898C26.8222 10.7754 24.6403 9.86195 22.3606 9.84818Z" fill="#AFAFAF"/>
<path d="M14.7575 41.7959C14.0969 41.8423 13.4785 42.1378 13.0275 42.6228C12.5765 43.1077 12.3265 43.7459 12.3281 44.4081V61.649C12.3281 62.3002 12.5868 62.9248 13.0473 63.3853C13.5078 63.8458 14.1324 64.1045 14.7836 64.1045C15.4349 64.1045 16.0595 63.8458 16.52 63.3853C16.9804 62.9248 17.2392 62.3002 17.2392 61.649V44.4081C17.24 43.7374 16.9828 43.092 16.5208 42.6057C16.0588 42.1194 15.4274 41.8294 14.7575 41.7959Z" fill="#AFAFAF"/>
</g>
<defs>
<clipPath id="clip0_208_188">
<rect width="54.1518" height="64" fill="white"/>
</clipPath>
</defs>
</svg>
