<svg width="70" height="64" viewBox="0 0 70 64" fill="none" xmlns="http://www.w3.org/2000/svg">
<g clip-path="url(#clip0_208_176)">
<path d="M16.0141 5.31919H53.3333C54.7359 5.30782 56.1267 5.57618 57.4244 6.10856C58.7221 6.64094 59.9007 7.42666 60.8912 8.4198C61.8817 9.41294 62.6643 10.5936 63.1932 11.8927C63.7221 13.1918 63.9868 14.5833 63.9717 15.9859V48.0141C63.9868 49.4167 63.7221 50.8082 63.1932 52.1073C62.6643 53.4064 61.8817 54.5871 60.8912 55.5802C59.9007 56.5733 58.7221 57.3591 57.4244 57.8914C56.1267 58.4238 54.7359 58.6922 53.3333 58.6808H16.0141C14.6102 58.6921 13.2181 58.4239 11.9189 57.8919C10.6196 57.3598 9.43922 56.5746 8.44647 55.5818C7.45372 54.5891 6.66845 53.4087 6.1364 52.1094C5.60435 50.8102 5.33617 49.4181 5.34748 48.0141V15.9859C5.33617 14.5819 5.60435 13.1898 6.1364 11.8906C6.66845 10.5913 7.45372 9.41093 8.44647 8.41818C9.43922 7.42542 10.6196 6.64015 11.9189 6.10811C13.2181 5.57606 14.6102 5.30788 16.0141 5.31919ZM16.0141 0C11.7741 0.00745166 7.70946 1.69316 4.70866 4.68867C1.70785 7.68418 0.0149495 11.7458 0 15.9859V48.0141C0.0149495 52.2542 1.70785 56.3158 4.70866 59.3113C7.70946 62.3068 11.7741 63.9925 16.0141 64H53.3333C57.5707 63.9925 61.6325 62.3059 64.6288 59.3096C67.6251 56.3133 69.3117 52.2516 69.3192 48.0141V15.9859C69.3117 11.7484 67.6251 7.68672 64.6288 4.69041C61.6325 1.6941 57.5707 0.00748001 53.3333 0H16.0141Z" fill="#AFAFAF"/>
<path d="M53.0481 8.00684C52.5004 8.22687 52.0352 8.6127 51.7177 9.11029C51.4001 9.60788 51.2462 10.1923 51.2774 10.7817C51.3086 11.3712 51.5233 11.9361 51.8916 12.3974C52.2598 12.8587 52.7631 13.1933 53.331 13.3543H55.9906C56.6523 13.2862 57.2652 12.9751 57.7108 12.4812C58.1564 11.9873 58.4031 11.3458 58.4031 10.6806C58.4031 10.0154 58.1564 9.37383 57.7108 8.87996C57.2652 8.38609 56.6523 8.07499 55.9906 8.00684H53.1613H53.0481Z" fill="#AFAFAF"/>
<path d="M39.7278 8.00684C39.1801 8.22687 38.7149 8.6127 38.3973 9.11029C38.0798 9.60788 37.9259 10.1923 37.9571 10.7817C37.9883 11.3712 38.203 11.9361 38.5713 12.3974C38.9395 12.8587 39.4428 13.1933 40.0107 13.3543H42.6703C43.332 13.2862 43.9449 12.9751 44.3905 12.4812C44.8361 11.9873 45.0828 11.3458 45.0828 10.6806C45.0828 10.0154 44.8361 9.37383 44.3905 8.87996C43.9449 8.38609 43.332 8.07499 42.6703 8.00684H39.8409H39.7278Z" fill="#AFAFAF"/>
<path d="M32.9889 31.9999C34.2436 31.9999 35.4701 32.3723 36.5129 33.07C37.5558 33.7676 38.3681 34.7591 38.8469 35.9188C39.3258 37.0786 39.4496 38.3543 39.2028 39.5845C38.9559 40.8147 38.3495 41.9439 37.4603 42.8291C36.5711 43.7143 35.4392 44.3157 34.2079 44.557C32.9767 44.7983 31.7015 44.6688 30.5439 44.1848C29.3864 43.7007 28.3985 42.884 27.7055 41.8381C27.0125 40.7921 26.6456 39.564 26.6512 38.3093C26.6474 37.4773 26.809 36.6528 27.1265 35.8838C27.444 35.1147 27.9111 34.4164 28.5008 33.8294C29.0904 33.2424 29.7908 32.7784 30.5613 32.4643C31.3318 32.1502 32.157 31.9923 32.9889 31.9999ZM32.9889 26.6807C30.6822 26.6807 28.4273 27.3651 26.5098 28.6472C24.5922 29.9293 23.0981 31.7516 22.2167 33.8832C21.3352 36.0149 21.106 38.3602 21.5581 40.6222C22.0102 42.8842 23.1232 44.9612 24.7563 46.5903C26.3894 48.2194 28.4691 49.3274 30.7322 49.774C32.9953 50.2206 35.34 49.9857 37.4695 49.0991C39.599 48.2124 41.4176 46.7139 42.6951 44.7933C43.9726 42.8726 44.6515 40.616 44.6459 38.3093C44.631 35.2249 43.3971 32.2715 41.2135 30.0931C39.0298 27.9147 36.0734 26.6881 32.9889 26.6807Z" fill="#AFAFAF"/>
<path d="M39.3279 41.959C38.8238 42.0202 38.3455 42.216 37.9431 42.5258C37.5408 42.8356 37.2292 43.248 37.0411 43.7197C36.853 44.1914 36.7953 44.705 36.8741 45.2066C36.9529 45.7083 37.1652 46.1795 37.4889 46.5708L43.4588 52.5408C43.9578 53.0398 44.6346 53.3201 45.3403 53.3201C46.046 53.3201 46.7228 53.0398 47.2218 52.5408C47.7208 52.0418 48.0012 51.365 48.0012 50.6593C48.0012 49.9535 47.7208 49.2767 47.2218 48.7777L41.2519 42.7795C40.7389 42.2703 40.0505 41.9767 39.3279 41.959Z" fill="#AFAFAF"/>
<path d="M13.0713 8.00684C12.5236 8.22687 12.0584 8.6127 11.7409 9.11029C11.4233 9.60788 11.2694 10.1923 11.3006 10.7817C11.3318 11.3712 11.5465 11.9361 11.9148 12.3974C12.283 12.8587 12.7863 13.1933 13.3542 13.3543H16.0138C16.6755 13.2862 17.2884 12.9751 17.734 12.4812C18.1796 11.9873 18.4263 11.3458 18.4263 10.6806C18.4263 10.0154 18.1796 9.37383 17.734 8.87996C17.2884 8.38609 16.6755 8.07499 16.0138 8.00684H13.1844H13.0713Z" fill="#AFAFAF"/>
<path d="M5.34638 15.9858C4.63726 15.9858 3.95718 16.2675 3.45576 16.769C2.95433 17.2704 2.67264 17.9505 2.67264 18.6596C2.67264 19.3687 2.95433 20.0488 3.45576 20.5502C3.95718 21.0516 4.63726 21.3333 5.34638 21.3333H63.9989C64.5548 21.1409 65.037 20.78 65.3782 20.3008C65.7195 19.8215 65.9028 19.2479 65.9028 18.6596C65.9028 18.0713 65.7195 17.4976 65.3782 17.0184C65.037 16.5392 64.5548 16.1783 63.9989 15.9858H5.34638Z" fill="#AFAFAF"/>
</g>
<defs>
<clipPath id="clip0_208_176">
<rect width="69.3192" height="64" fill="white"/>
</clipPath>
</defs>
</svg>
