<svg width="63" height="59" viewBox="0 0 63 59" fill="none" xmlns="http://www.w3.org/2000/svg">
<path fill-rule="evenodd" clip-rule="evenodd" d="M7.87683 0C5.78564 0 3.79141 0.654328 2.31413 1.81745C0.830685 2.98188 0 4.57114 0 6.21494V39.1495C0 42.5538 3.55104 45.349 7.87683 45.349H27.0601C28.2453 48.4557 29.4705 51.6317 30.5876 54.591C31.5861 57.2085 34.661 59 38.1317 59H55.1036C57.1944 59 59.2126 58.3459 60.6908 57.1825C62.1689 56.0191 63 54.446 63 52.8004V39.4425C63 35.3052 61.093 31.4485 57.8629 28.0755L47.5986 16.2039V6.21526C47.5986 2.81094 44.028 0.000385829 39.7022 0.000385829L7.87683 0ZM7.87683 3.94305H30.0494V32.7536C26.1489 33.8552 23.9522 37.2051 25.1472 40.3432C25.2644 40.6506 25.4271 41.0754 25.5532 41.406H7.87683C6.25586 41.406 5.01477 40.425 5.01477 39.1495V6.21494C5.01477 5.61409 5.30665 5.03677 5.84648 4.61304C6.38632 4.18801 7.11458 3.94301 7.87683 3.94305ZM35.0593 3.94305H39.7022C41.3232 3.94305 42.5887 4.9394 42.5887 6.21494C42.5885 16.6554 42.5887 27.0886 42.5887 37.5323L38.2247 34.1707C37.3233 33.4772 36.2299 32.9848 35.0593 32.692V3.94305ZM12.4806 7.85915C11.0991 7.88022 10.0002 8.7779 10.0246 9.86534V11.833C9.94698 14.5222 15.1122 14.5222 15.0345 11.833V9.86534C15.0596 8.74773 13.9005 7.83726 12.4806 7.85915ZM12.4806 17.7245C11.1049 17.7456 10.0084 18.6362 10.0246 19.7191V35.4953C9.94698 38.1844 15.1122 38.1844 15.0345 35.4953V19.7191C15.052 18.6061 13.8947 17.7028 12.4806 17.7245ZM47.5986 23.2117L53.8462 30.4317C56.3923 33.1751 57.9419 36.5514 57.9901 39.4383V52.8C57.9901 53.3991 57.6786 53.9771 57.1388 54.4019C56.5991 54.8267 55.8647 55.0565 55.1036 55.0565H38.1317C36.851 55.0564 35.7455 54.4201 35.3772 53.4547C33.9533 49.7109 31.5247 43.3229 29.9564 39.2072C29.4338 37.724 30.8068 36.8968 31.7323 36.4424C32.8687 35.9987 34.097 36.509 34.7119 36.9927L42.5887 43.0344V45.3487C42.5887 47.9781 47.5986 47.9781 47.5986 45.3487C47.5989 37.9733 47.5986 30.592 47.5986 23.2117Z" fill="black"/>
</svg>
