<svg width="63" height="59" viewBox="0 0 63 59" fill="none" xmlns="http://www.w3.org/2000/svg">
<path fill-rule="evenodd" clip-rule="evenodd" d="M7.99422 0C3.79272 0 0.331211 2.78434 0.305038 6.17269C0.235764 15.3686 0.0720955 37.1715 0.000138222 46.4164C-0.0120665 48.0667 0.784364 49.6583 2.22971 50.8299C3.67354 52.0037 5.643 52.6583 7.68932 52.6583H32.7387C32.9582 53.2494 33.2653 54.0801 33.4533 54.5865C34.4274 57.2024 37.4518 59 40.8376 59H55.3156C57.3552 59 59.3094 58.3495 60.7514 57.1869C62.1933 56.0243 63 54.4487 63 52.8042V37.9812C63 34.8061 61.7278 31.7213 59.365 29.1812L47.2453 16.1443V6.21494C47.2453 2.81277 43.7761 0 39.5561 0H7.99422ZM7.99422 3.93713H39.5561C41.1422 3.93713 42.3669 4.93633 42.3669 6.21494V18.9176V35.7726C41.9045 35.1479 41.2576 34.5442 40.9282 34.19C39.4126 32.5439 36.6252 32.1376 34.1918 32.4845C33.5584 32.5549 33.1425 32.6831 32.7387 32.8149C30.8324 33.4171 29.3771 34.5968 28.5654 36.0184H4.95951C5.03903 25.599 5.13221 13.014 5.18343 6.19957C5.19318 4.92835 6.41957 3.93713 7.99422 3.93713ZM23.749 6.36091C23.3531 6.36385 22.9641 6.44444 22.6155 6.59569C22.2669 6.74693 21.9692 6.96428 21.748 7.22903L17.2317 12.718H10.6573C10.217 12.7183 9.78495 12.8147 9.40706 12.997C9.02917 13.1793 8.71952 13.4406 8.51096 13.7533C8.3024 14.066 8.2027 14.4184 8.22244 14.7731C8.24218 15.1278 8.38063 15.4715 8.62309 15.7679L13.4681 21.6333V29.5C13.4668 29.8569 13.5859 30.2073 13.8126 30.5138C14.0394 30.8202 14.3654 31.0712 14.7555 31.2397C15.1457 31.4082 15.5853 31.488 16.0274 31.4705C16.4695 31.453 16.8973 31.3388 17.2651 31.1402L23.7823 27.6294L30.3186 31.1402C30.6862 31.3357 31.1125 31.4472 31.5525 31.4632C31.9924 31.4791 32.4294 31.3987 32.8172 31.2306C33.2051 31.0624 33.5292 30.8127 33.7553 30.508C33.9813 30.2034 34.1009 29.855 34.1013 29.5V21.6333L38.9463 15.7679C39.1879 15.4726 39.3263 15.1302 39.3468 14.7769C39.3673 14.4235 39.2693 14.0722 39.063 13.76C38.8567 13.4478 38.5498 13.1862 38.1746 13.0028C37.7994 12.8195 37.3698 12.7211 36.9311 12.718H30.3376L25.8213 7.22903C25.5935 6.95614 25.2844 6.73372 24.9224 6.58206C24.5603 6.43039 24.1569 6.35434 23.749 6.36091ZM23.7824 11.8768L27.0077 15.7679C27.2298 16.0392 27.5318 16.262 27.8868 16.4161C28.2418 16.5703 28.6387 16.6511 29.0419 16.6514H32.3577L29.6374 19.9471C29.3686 20.2697 29.2244 20.6493 29.2229 21.0379V25.8279L25.1354 23.6346C24.7352 23.42 24.2653 23.3056 23.7848 23.3056C23.3042 23.3056 22.8344 23.42 22.4342 23.6346L18.3466 25.8279V21.0379C18.3451 20.6493 18.2009 20.2697 17.9321 19.9471L15.2119 16.6514H18.5276C18.9309 16.6511 19.3277 16.5703 19.6827 16.4161C20.0377 16.262 20.3398 16.0392 20.5619 15.7679L23.7824 11.8768ZM47.2454 22.705L55.4586 31.5319C57.1885 33.3916 58.1217 35.6566 58.1217 37.9812V52.8042C58.1217 53.4048 57.8209 53.9878 57.2928 54.4136C56.7645 54.8395 56.0605 55.082 55.3157 55.082H40.8377C39.5845 55.082 38.4968 54.425 38.1365 53.4572C36.7461 49.7128 34.3748 43.3308 32.8436 39.2142C32.4029 38.0287 33.171 36.8314 34.6254 36.4409H34.5873C34.5996 36.4367 34.6134 36.4304 34.6254 36.4262C35.6203 36.158 36.6997 36.3897 37.4504 36.9793C37.4836 37.0162 37.5146 37.0434 37.56 37.0943C39.3349 39.1474 40.9775 41.1309 42.7813 43.3093C44.1213 44.9206 47.2372 44.1583 47.2453 42.2184L47.2454 22.705ZM4.92624 39.9402H28.0605C28.0986 40.0761 28.1103 40.2122 28.1605 40.3474C29.0613 42.7691 30.1601 45.7308 31.2715 48.7211H7.68936C6.93765 48.7211 6.21407 48.484 5.68847 48.0565C5.15845 47.6269 4.87378 47.0465 4.87858 46.4433C4.89079 44.9493 4.91061 41.9837 4.92624 39.9402ZM21.1574 42.364C20.5201 42.3758 19.9139 42.5881 19.4684 42.9557C19.0229 43.3232 18.7734 43.8167 18.7734 44.3306C18.7734 44.8446 19.0229 45.3381 19.4684 45.7056C19.9139 46.0731 20.5201 46.2855 21.1574 46.2973H23.7824C24.4196 46.2855 25.0258 46.0731 25.4714 45.7056C25.9169 45.3381 26.1663 44.8446 26.1663 44.3306C26.1663 43.8167 25.9169 43.3232 25.4714 42.9557C25.0258 42.5881 24.4196 42.3758 23.7824 42.364H21.1574Z" fill="black"/>
</svg>
