<svg width="63" height="59" viewBox="0 0 63 59" fill="none" xmlns="http://www.w3.org/2000/svg">
<path fill-rule="evenodd" clip-rule="evenodd" d="M10.6886 0C4.7999 0 0 4.49536 0 10.0105V39.0072C0 44.5223 4.7999 49.0177 10.6886 49.0177H25.3547C28.7162 54.9222 35.3567 58.9554 42.9835 58.9554C47.7327 58.9554 52.0939 57.3866 55.5258 54.7818L59.3764 58.3882C61.3561 60.2423 64.327 57.4637 62.3473 55.6096L58.4925 51.9995C61.2727 48.7856 62.9489 44.6998 62.9489 40.2528C62.9489 33.1099 58.6424 26.8944 52.338 23.7462V10.0105C52.338 4.49536 47.5422 0 41.6535 0H10.6886ZM10.6886 3.92443H14.6334V13.3831C14.6334 15.587 17.6201 16.5563 19.1797 15.0809L21.4385 12.95L23.6974 15.0809C25.0712 16.3805 27.2423 16.3805 28.6161 15.0809L30.8708 12.9654L33.1133 15.0809C34.6729 16.5563 37.676 15.587 37.676 13.3831V3.92443H41.6535C45.2933 3.92443 48.1477 6.60163 48.1477 10.0105V22.2131C46.497 21.7978 44.7719 21.554 42.9835 21.554C36.3035 21.554 30.3894 24.6567 26.7624 29.3915H12.1576C10.0804 29.3915 8.33561 31.0217 8.33563 32.9672V37.6045C8.33563 39.5499 10.0804 41.1687 12.1576 41.1687H23.0631C23.1335 42.5197 23.3557 43.8316 23.7178 45.0932H10.6886C7.04884 45.0932 4.1944 42.416 4.1944 39.0072V10.0105C4.1944 6.60163 7.04884 3.92443 10.6886 3.92443ZM18.8237 3.92443H33.4857V10.068C31.8963 8.7486 29.5285 8.63186 28.0105 10.068L26.1404 11.8194L24.2825 10.068C22.7647 8.632 20.4131 8.74906 18.8237 10.068V3.92443ZM42.9835 25.4785C51.7253 25.4785 58.7749 32.0655 58.7749 40.2528C58.7749 48.44 51.7253 55.0424 42.9835 55.0424C34.2416 55.0424 27.2084 48.44 27.2084 40.2528C27.2084 32.0655 34.2416 25.4785 42.9835 25.4785ZM42.9835 29.928C38.149 29.928 34.1813 33.6401 34.1813 38.1679C34.1813 40.4318 35.0122 43.1406 36.3788 45.5992C37.0621 46.8284 37.8812 47.9755 38.9282 48.9027C39.9751 49.83 41.3531 50.5814 42.9835 50.5814C44.6138 50.5814 45.9877 49.83 47.0347 48.9027C48.0816 47.9755 48.9048 46.8284 49.5881 45.5992C50.9548 43.1406 51.7815 40.4318 51.7815 38.1679C51.7815 33.6401 47.818 29.928 42.9835 29.928ZM12.53 33.316H24.4544C23.9198 34.563 23.5378 35.8787 23.3004 37.2405H12.53V33.316ZM42.9835 33.8525C45.5507 33.8525 47.5912 35.7635 47.5912 38.1679C47.5912 39.3701 46.9206 41.8827 45.8602 43.7902C45.3301 44.744 44.715 45.5542 44.1579 46.0476C43.6008 46.541 43.2036 46.6723 42.9835 46.6723C42.7634 46.6723 42.362 46.541 41.8049 46.0476C41.2479 45.5542 40.6369 44.744 40.1067 43.7902C39.0464 41.8827 38.3717 39.3701 38.3717 38.1679C38.3717 35.7635 40.4162 33.8525 42.9835 33.8525ZM42.9835 36.0677C42.3909 36.0678 41.8227 36.2883 41.4038 36.6807C40.9848 37.0731 40.7493 37.6053 40.7492 38.1603C40.7493 38.7152 40.9848 39.2473 41.4038 39.6397C41.8227 40.0321 42.3909 40.2527 42.9835 40.2528C43.576 40.2527 44.1442 40.0321 44.5632 39.6397C44.9822 39.2473 45.2176 38.7152 45.2178 38.1603C45.2176 37.6053 44.9822 37.0731 44.5632 36.6807C44.1442 36.2883 43.576 36.0678 42.9835 36.0677Z" fill="black"/>
</svg>
