<svg width="64" height="64" viewBox="0 0 64 64" fill="none" xmlns="http://www.w3.org/2000/svg">
<g clip-path="url(#clip0_208_200)">
<path fill-rule="evenodd" clip-rule="evenodd" d="M38.8601 34.4457C38.3734 34.4506 37.9009 34.6108 37.5115 34.9029L29.9001 40.6857L26.6087 37.3714C26.1873 36.9859 25.6369 36.7722 25.0658 36.7722C24.4947 36.7722 23.9443 36.9859 23.523 37.3714C23.3134 37.5701 23.1465 37.8093 23.0324 38.0746C22.9183 38.3398 22.8595 38.6255 22.8595 38.9143C22.8595 39.203 22.9183 39.4888 23.0324 39.754C23.1465 40.0193 23.3134 40.2585 23.523 40.4571L28.0944 45.0286C28.4557 45.3943 28.9374 45.6166 29.4501 45.6545C29.9628 45.6923 30.4719 45.543 30.883 45.2343L40.0258 38.3771C40.4218 38.1314 40.726 37.7624 40.8917 37.3269C41.0574 36.8913 41.0754 36.4134 40.943 35.9667C40.8105 35.5199 40.5349 35.129 40.1585 34.8542C39.7822 34.5794 39.326 34.4359 38.8601 34.4457ZM32.003 27.2457C34.3105 27.2457 36.5661 27.9306 38.4841 29.2135C40.402 30.4965 41.8961 32.3198 42.7771 34.4525C43.658 36.5852 43.8862 38.9314 43.4327 41.1939C42.9791 43.4564 41.8644 45.5334 40.2295 47.1619C38.5947 48.7903 36.5133 49.8969 34.249 50.3416C31.9847 50.7862 29.6395 50.5488 27.5102 49.6595C25.3809 48.7702 23.5635 47.2689 22.2881 45.3459C21.0127 43.4229 20.3368 41.1646 20.3458 38.8571C20.3458 37.3285 20.6477 35.8148 21.234 34.4031C21.8204 32.9913 22.6798 31.7092 23.7629 30.6304C24.8459 29.5516 26.1314 28.6973 27.5454 28.1164C28.9595 27.5356 30.4743 27.2397 32.003 27.2457ZM32.003 22.9714C28.8385 22.9714 25.745 23.9098 23.1138 25.6679C20.4827 27.426 18.4319 29.9249 17.2209 32.8485C16.0099 35.7721 15.693 38.9892 16.3104 42.0929C16.9278 45.1966 18.4516 48.0475 20.6893 50.2851C22.9269 52.5228 25.7778 54.0466 28.8815 54.664C31.9852 55.2814 35.2023 54.9645 38.1259 53.7535C41.0495 52.5425 43.5484 50.4917 45.3065 47.8606C47.0646 45.2294 48.003 42.1359 48.003 38.9714C48.003 34.728 46.3173 30.6583 43.3167 27.6577C40.3161 24.6571 36.2464 22.9714 32.003 22.9714ZM15.5001 15.7714H17.9687C17.1001 18.1943 16.6201 20 16.6201 20C16.4807 20.5486 16.5649 21.1302 16.8542 21.6167C17.1436 22.1032 17.6143 22.4549 18.163 22.5943C18.7116 22.7337 19.2931 22.6495 19.7796 22.3602C20.2662 22.0708 20.6178 21.6 20.7572 21.0514C21.2389 19.2582 21.8266 17.4951 22.5172 15.7714H42.4258C43.1039 17.4996 43.6914 19.262 44.1858 21.0514C44.3252 21.6 44.6769 22.0708 45.1634 22.3602C45.65 22.6495 46.2315 22.7337 46.7801 22.5943C47.3287 22.4549 47.7995 22.1032 48.0888 21.6167C48.3782 21.1302 48.4624 20.5486 48.323 20C48.323 20 47.843 18.1943 46.9744 15.7714H48.963C49.7567 15.7839 50.5378 15.973 51.2494 16.3248C51.961 16.6767 52.5854 17.1826 53.0772 17.8057C54.6462 19.6744 55.8482 21.8225 56.6201 24.1371C58.632 30.3719 59.6803 36.8774 59.7287 43.4286C59.7287 48.1371 59.4544 51.7486 56.0258 54.56C52.5972 57.3714 45.3058 59.6343 31.0201 59.6343C18.2887 59.7257 11.4315 57.6 8.04867 54.8571C4.66582 52.1143 4.1401 48.3886 4.27725 43.5886C4.36602 37.0038 5.47638 30.4727 7.56867 24.2286C8.35125 21.8856 9.58601 19.7189 11.203 17.8514C11.7238 17.2119 12.3785 16.6942 13.1209 16.3349C13.8633 15.9755 14.6754 15.7832 15.5001 15.7714ZM32.4601 4.34286C33.3374 4.39336 34.1952 4.62209 34.9811 5.01507C35.7671 5.40805 36.4648 5.95705 37.0315 6.62857C38.4004 8.05961 39.5622 9.6753 40.483 11.4286H24.483C25.4034 9.61397 26.5728 7.93681 27.9572 6.44571C28.527 5.80413 29.2184 5.28188 29.9913 4.90916C30.7642 4.53644 31.6033 4.32066 32.4601 4.27429V4.34286ZM32.4601 0C31.0367 0.0517181 29.6381 0.387779 28.3466 0.988385C27.0551 1.58899 25.8968 2.44199 24.9401 3.49714C23.0117 5.51447 21.4217 7.82999 20.2315 10.3543C20.045 10.7188 19.8771 11.0926 19.7287 11.4743H15.5001C14.0973 11.5116 12.7169 11.835 11.4435 12.4245C10.1701 13.0141 9.03045 13.8574 8.09439 14.9029C6.07383 17.1844 4.52067 19.8403 3.52296 22.72C1.26691 29.3945 0.0789451 36.3835 0.00296003 43.4286C-0.15704 48.6857 0.64296 54.2171 5.28296 58.08C9.92296 61.9429 17.7172 64 31.0201 64C45.7401 64 53.8773 61.8971 58.7458 57.9429C63.6144 53.9886 64.003 48.4571 64.003 43.4286C63.9588 36.3694 62.8176 29.36 60.6201 22.6514C59.6753 19.7959 58.1761 17.155 56.2087 14.88C55.3099 13.8295 54.2005 12.9795 52.9523 12.3849C51.7041 11.7904 50.345 11.4646 48.963 11.4286H45.2144C45.0315 11.04 44.9172 10.6971 44.7115 10.3086C43.5132 7.78898 41.9241 5.47469 40.003 3.45143C39.0396 2.4019 37.8759 1.55582 36.5805 0.963057C35.2851 0.370295 33.8841 0.042843 32.4601 0Z" fill="#AFAFAF"/>
</g>
<defs>
<clipPath id="clip0_208_200">
<rect width="64" height="64" fill="white"/>
</clipPath>
</defs>
</svg>
