<svg width="106" height="41" viewBox="0 0 106 41" fill="none" xmlns="http://www.w3.org/2000/svg">
<path d="M16.8638 3.53612C18.8168 1.58313 21.9832 1.58312 23.9362 3.53612L37.2638 16.8637C39.2168 18.8167 39.2168 21.9831 37.2638 23.9361L23.9362 37.2637C21.9832 39.2167 18.8168 39.2167 16.8638 37.2637L3.53621 23.9361C1.58322 21.9831 1.58322 18.8167 3.53621 16.8637L16.8638 3.53612Z" fill="#AFAFAF"/>
<path d="M19.7262 26.9772H17.1531V14.597H24.2228V16.7478H19.7262V19.9403H23.9106V22.0827H19.7262V26.9772Z" fill="white"/>
<path d="M52.0664 29V12.5811H55.5479V26.125H62.2075V29H52.0664ZM76.7119 22.6997C76.7119 23.7479 76.5697 24.6763 76.2852 25.4849C76.0081 26.2935 75.6001 26.9785 75.061 27.54C74.5295 28.0941 73.8856 28.5133 73.1294 28.7979C72.3807 29.0824 71.5347 29.2246 70.5913 29.2246C69.7078 29.2246 68.8955 29.0824 68.1543 28.7979C67.4206 28.5133 66.7804 28.0941 66.2339 27.54C65.6948 26.9785 65.2756 26.2935 64.9761 25.4849C64.6841 24.6763 64.5381 23.7479 64.5381 22.6997C64.5381 21.3071 64.7852 20.1279 65.2793 19.1621C65.7734 18.1963 66.4772 17.4626 67.3906 16.9609C68.304 16.4593 69.3934 16.2085 70.6587 16.2085C71.8341 16.2085 72.8748 16.4593 73.7808 16.9609C74.6942 17.4626 75.4092 18.1963 75.9258 19.1621C76.4499 20.1279 76.7119 21.3071 76.7119 22.6997ZM68.0308 22.6997C68.0308 23.5233 68.1206 24.2158 68.3003 24.7773C68.48 25.3389 68.7607 25.7619 69.1426 26.0464C69.5244 26.3309 70.0223 26.4731 70.6362 26.4731C71.2427 26.4731 71.7331 26.3309 72.1074 26.0464C72.4893 25.7619 72.7663 25.3389 72.9385 24.7773C73.1182 24.2158 73.208 23.5233 73.208 22.6997C73.208 21.8687 73.1182 21.1799 72.9385 20.6333C72.7663 20.0793 72.4893 19.6637 72.1074 19.3867C71.7256 19.1097 71.2277 18.9712 70.6138 18.9712C69.7078 18.9712 69.049 19.2819 68.6372 19.9033C68.2329 20.5247 68.0308 21.4569 68.0308 22.6997ZM83.7144 34.5254C81.9624 34.5254 80.6222 34.2184 79.6938 33.6045C78.7729 32.998 78.3125 32.1445 78.3125 31.0439C78.3125 30.2878 78.5483 29.6551 79.02 29.146C79.4917 28.6369 80.1842 28.2738 81.0977 28.0566C80.7458 27.9069 80.4388 27.6636 80.1768 27.3267C79.9147 26.9823 79.7837 26.6191 79.7837 26.2373C79.7837 25.7581 79.9222 25.3613 80.1992 25.0469C80.4762 24.7249 80.8768 24.4105 81.4009 24.1035C80.742 23.819 80.2179 23.3623 79.8286 22.7334C79.4468 22.1045 79.2559 21.3633 79.2559 20.5098C79.2559 19.5964 79.4543 18.8215 79.8511 18.1851C80.2554 17.5412 80.8394 17.0508 81.603 16.7139C82.3742 16.377 83.3101 16.2085 84.4106 16.2085C84.6427 16.2085 84.9123 16.2235 85.2192 16.2534C85.5262 16.2834 85.807 16.3171 86.0615 16.3545C86.3236 16.3919 86.4995 16.4219 86.5894 16.4443H90.9692V18.1851L89.0039 18.6904C89.1836 18.9674 89.3184 19.2632 89.4082 19.5776C89.498 19.8921 89.543 20.2253 89.543 20.5771C89.543 21.9248 89.0713 22.9767 88.1279 23.7329C87.1921 24.4816 85.8893 24.856 84.2197 24.856C83.8229 24.8335 83.4486 24.8035 83.0967 24.7661C82.9245 24.9009 82.7935 25.0431 82.7036 25.1929C82.6138 25.3426 82.5688 25.4998 82.5688 25.6646C82.5688 25.8293 82.6362 25.9678 82.771 26.0801C82.9132 26.1849 83.1229 26.2673 83.3999 26.3271C83.6844 26.3796 84.0363 26.4058 84.4556 26.4058H86.5894C87.967 26.4058 89.0151 26.7015 89.7339 27.293C90.4601 27.8844 90.8232 28.7529 90.8232 29.8984C90.8232 31.3659 90.2093 32.5039 88.9814 33.3125C87.7611 34.1211 86.0054 34.5254 83.7144 34.5254ZM83.8604 32.2905C84.6764 32.2905 85.3765 32.2119 85.9604 32.0547C86.5519 31.9049 87.0049 31.6878 87.3193 31.4033C87.6338 31.1263 87.791 30.7931 87.791 30.4038C87.791 30.0894 87.6974 29.8385 87.5103 29.6514C87.3306 29.4717 87.0535 29.3444 86.6792 29.2695C86.3123 29.1947 85.8407 29.1572 85.2642 29.1572H83.4897C83.0705 29.1572 82.6924 29.2246 82.3555 29.3594C82.026 29.4941 81.764 29.6813 81.5693 29.9209C81.3747 30.168 81.2773 30.4525 81.2773 30.7744C81.2773 31.2461 81.502 31.6167 81.9512 31.8862C82.4079 32.1558 83.0443 32.2905 83.8604 32.2905ZM84.4106 22.7671C85.0545 22.7671 85.5262 22.5687 85.8257 22.1719C86.1252 21.7751 86.2749 21.236 86.2749 20.5547C86.2749 19.7985 86.1177 19.2332 85.8032 18.8589C85.4963 18.4771 85.0321 18.2861 84.4106 18.2861C83.7817 18.2861 83.3101 18.4771 82.9956 18.8589C82.6812 19.2332 82.5239 19.7985 82.5239 20.5547C82.5239 21.236 82.6774 21.7751 82.9844 22.1719C83.2988 22.5687 83.7743 22.7671 84.4106 22.7671ZM104.957 22.6997C104.957 23.7479 104.815 24.6763 104.53 25.4849C104.253 26.2935 103.845 26.9785 103.306 27.54C102.775 28.0941 102.131 28.5133 101.375 28.7979C100.626 29.0824 99.7798 29.2246 98.8364 29.2246C97.953 29.2246 97.1406 29.0824 96.3994 28.7979C95.6657 28.5133 95.0256 28.0941 94.479 27.54C93.9399 26.9785 93.5207 26.2935 93.2212 25.4849C92.9292 24.6763 92.7832 23.7479 92.7832 22.6997C92.7832 21.3071 93.0303 20.1279 93.5244 19.1621C94.0186 18.1963 94.7223 17.4626 95.6357 16.9609C96.5492 16.4593 97.6385 16.2085 98.9038 16.2085C100.079 16.2085 101.12 16.4593 102.026 16.9609C102.939 17.4626 103.654 18.1963 104.171 19.1621C104.695 20.1279 104.957 21.3071 104.957 22.6997ZM96.2759 22.6997C96.2759 23.5233 96.3657 24.2158 96.5454 24.7773C96.7251 25.3389 97.0059 25.7619 97.3877 26.0464C97.7695 26.3309 98.2674 26.4731 98.8813 26.4731C99.4878 26.4731 99.9782 26.3309 100.353 26.0464C100.734 25.7619 101.011 25.3389 101.184 24.7773C101.363 24.2158 101.453 23.5233 101.453 22.6997C101.453 21.8687 101.363 21.1799 101.184 20.6333C101.011 20.0793 100.734 19.6637 100.353 19.3867C99.9707 19.1097 99.4728 18.9712 98.8589 18.9712C97.953 18.9712 97.2941 19.2819 96.8823 19.9033C96.478 20.5247 96.2759 21.4569 96.2759 22.6997Z" fill="#AFAFAF"/>
</svg>

