<svg width="363" height="137" viewBox="0 0 363 137" fill="none" xmlns="http://www.w3.org/2000/svg">
<g filter="url(#filter0_d_209_282)">
<rect x="14" y="4" width="315" height="89" rx="8" fill="white"/>
</g>
<rect x="30" y="18" width="60" height="60" rx="8" fill="#C4C4C4"/>
<rect x="253" y="26" width="66" height="46" rx="8" fill="#4A4A4A"/>
<path d="M111.722 28.1504C113.38 28.1504 114.59 28.5078 115.352 29.2227C116.113 29.9316 116.494 30.9102 116.494 32.1582C116.494 32.7207 116.409 33.2598 116.239 33.7754C116.069 34.2852 115.791 34.7393 115.404 35.1377C115.023 35.5361 114.514 35.8525 113.875 36.0869C113.236 36.3154 112.448 36.4297 111.511 36.4297H110.342V41H107.617V28.1504H111.722ZM111.581 30.3828H110.342V34.1973H111.238C111.748 34.1973 112.19 34.1299 112.565 33.9951C112.94 33.8604 113.23 33.6494 113.436 33.3623C113.641 33.0752 113.743 32.7061 113.743 32.2549C113.743 31.6221 113.567 31.1533 113.216 30.8486C112.864 30.5381 112.319 30.3828 111.581 30.3828ZM124.693 30.9893C124.828 30.9893 124.983 30.998 125.159 31.0156C125.341 31.0273 125.487 31.0449 125.599 31.0684L125.396 33.582C125.309 33.5527 125.183 33.5322 125.019 33.5205C124.86 33.5029 124.723 33.4941 124.605 33.4941C124.26 33.4941 123.923 33.5381 123.595 33.626C123.272 33.7139 122.982 33.8574 122.725 34.0566C122.467 34.25 122.262 34.5078 122.109 34.8301C121.963 35.1465 121.89 35.5361 121.89 35.999V41H119.209V31.1738H121.239L121.635 32.8262H121.767C121.96 32.4922 122.2 32.1875 122.487 31.9121C122.78 31.6309 123.111 31.4082 123.48 31.2441C123.855 31.0742 124.26 30.9893 124.693 30.9893ZM136.812 36.0693C136.812 36.8896 136.701 37.6162 136.479 38.249C136.262 38.8818 135.942 39.418 135.521 39.8574C135.104 40.291 134.601 40.6191 134.009 40.8418C133.423 41.0645 132.761 41.1758 132.022 41.1758C131.331 41.1758 130.695 41.0645 130.115 40.8418C129.541 40.6191 129.04 40.291 128.612 39.8574C128.19 39.418 127.862 38.8818 127.628 38.249C127.399 37.6162 127.285 36.8896 127.285 36.0693C127.285 34.9795 127.479 34.0566 127.865 33.3008C128.252 32.5449 128.803 31.9707 129.518 31.5781C130.232 31.1855 131.085 30.9893 132.075 30.9893C132.995 30.9893 133.81 31.1855 134.519 31.5781C135.233 31.9707 135.793 32.5449 136.197 33.3008C136.607 34.0566 136.812 34.9795 136.812 36.0693ZM130.019 36.0693C130.019 36.7139 130.089 37.2559 130.229 37.6953C130.37 38.1348 130.59 38.4658 130.889 38.6885C131.188 38.9111 131.577 39.0225 132.058 39.0225C132.532 39.0225 132.916 38.9111 133.209 38.6885C133.508 38.4658 133.725 38.1348 133.859 37.6953C134 37.2559 134.07 36.7139 134.07 36.0693C134.07 35.4189 134 34.8799 133.859 34.4521C133.725 34.0186 133.508 33.6934 133.209 33.4766C132.91 33.2598 132.521 33.1514 132.04 33.1514C131.331 33.1514 130.815 33.3945 130.493 33.8809C130.177 34.3672 130.019 35.0967 130.019 36.0693ZM142.639 41.1758C141.543 41.1758 140.649 40.748 139.958 39.8926C139.272 39.0312 138.93 37.7686 138.93 36.1045C138.93 34.4229 139.278 33.1514 139.976 32.29C140.673 31.4229 141.584 30.9893 142.709 30.9893C143.178 30.9893 143.591 31.0537 143.948 31.1826C144.306 31.3115 144.613 31.4844 144.871 31.7012C145.135 31.918 145.357 32.1611 145.539 32.4307H145.627C145.592 32.2432 145.548 31.9678 145.495 31.6045C145.448 31.2354 145.425 30.8574 145.425 30.4707V27.3242H148.114V41H146.058L145.539 39.7256H145.425C145.255 39.9951 145.041 40.2412 144.783 40.4639C144.531 40.6807 144.229 40.8535 143.878 40.9824C143.526 41.1113 143.113 41.1758 142.639 41.1758ZM143.579 39.04C144.312 39.04 144.827 38.8232 145.126 38.3896C145.431 37.9502 145.592 37.291 145.609 36.4121V36.1221C145.609 35.167 145.463 34.4375 145.17 33.9336C144.877 33.4238 144.332 33.1689 143.535 33.1689C142.943 33.1689 142.48 33.4238 142.146 33.9336C141.812 34.4434 141.646 35.1787 141.646 36.1396C141.646 37.1006 141.812 37.8242 142.146 38.3105C142.486 38.7969 142.964 39.04 143.579 39.04ZM160.436 31.1738V41H158.379L158.019 39.7432H157.878C157.667 40.0771 157.403 40.3496 157.087 40.5605C156.771 40.7715 156.422 40.9268 156.041 41.0264C155.66 41.126 155.265 41.1758 154.854 41.1758C154.151 41.1758 153.539 41.0527 153.018 40.8066C152.496 40.5547 152.089 40.165 151.796 39.6377C151.509 39.1104 151.365 38.4248 151.365 37.5811V31.1738H154.046V36.9131C154.046 37.6162 154.172 38.1465 154.424 38.5039C154.676 38.8613 155.077 39.04 155.628 39.04C156.173 39.04 156.601 38.917 156.911 38.6709C157.222 38.4189 157.438 38.0527 157.562 37.5723C157.69 37.0859 157.755 36.4941 157.755 35.7969V31.1738H160.436ZM167.738 41.1758C166.766 41.1758 165.937 41 165.251 40.6484C164.565 40.291 164.044 39.7402 163.687 38.9961C163.329 38.252 163.15 37.2998 163.15 36.1396C163.15 34.9385 163.353 33.96 163.757 33.2041C164.167 32.4424 164.732 31.8828 165.453 31.5254C166.18 31.168 167.021 30.9893 167.976 30.9893C168.655 30.9893 169.241 31.0566 169.733 31.1914C170.231 31.3203 170.665 31.4756 171.034 31.6572L170.243 33.7314C169.821 33.5615 169.429 33.4238 169.065 33.3184C168.702 33.207 168.339 33.1514 167.976 33.1514C167.507 33.1514 167.117 33.2627 166.807 33.4854C166.496 33.7021 166.265 34.0303 166.112 34.4697C165.96 34.9092 165.884 35.46 165.884 36.1221C165.884 36.7725 165.966 37.3115 166.13 37.7393C166.294 38.167 166.531 38.4863 166.842 38.6973C167.152 38.9023 167.53 39.0049 167.976 39.0049C168.532 39.0049 169.027 38.9316 169.461 38.7852C169.895 38.6328 170.316 38.4219 170.727 38.1523V40.4463C170.316 40.7041 169.886 40.8887 169.435 41C168.989 41.1172 168.424 41.1758 167.738 41.1758ZM177.651 39.04C177.944 39.04 178.229 39.0107 178.504 38.9521C178.785 38.8936 179.063 38.8203 179.339 38.7324V40.7275C179.052 40.8564 178.694 40.9619 178.267 41.0439C177.845 41.1318 177.382 41.1758 176.878 41.1758C176.292 41.1758 175.765 41.082 175.296 40.8945C174.833 40.7012 174.467 40.3701 174.197 39.9014C173.934 39.4268 173.802 38.7676 173.802 37.9238V33.1865H172.519V32.0527L173.995 31.1562L174.769 29.082H176.482V31.1738H179.233V33.1865H176.482V37.9238C176.482 38.2988 176.588 38.5801 176.799 38.7676C177.016 38.9492 177.3 39.04 177.651 39.04ZM198.62 41H195.157L189.567 31.2793H189.488C189.512 31.6836 189.532 32.0908 189.55 32.501C189.567 32.9111 189.585 33.3213 189.603 33.7314C189.62 34.1357 189.638 34.543 189.655 34.9531V41H187.221V28.1504H190.657L196.238 37.7744H196.3C196.288 37.376 196.273 36.9805 196.256 36.5879C196.238 36.1953 196.221 35.8027 196.203 35.4102C196.191 35.0176 196.18 34.625 196.168 34.2324V28.1504H198.62V41ZM206.178 30.9717C207.496 30.9717 208.507 31.2588 209.21 31.833C209.913 32.4072 210.265 33.2803 210.265 34.4521V41H208.393L207.874 39.6641H207.804C207.522 40.0156 207.235 40.3027 206.942 40.5254C206.649 40.748 206.312 40.9121 205.932 41.0176C205.551 41.123 205.088 41.1758 204.543 41.1758C203.963 41.1758 203.441 41.0645 202.979 40.8418C202.521 40.6191 202.161 40.2793 201.897 39.8223C201.634 39.3594 201.502 38.7734 201.502 38.0645C201.502 37.0215 201.868 36.2539 202.601 35.7617C203.333 35.2637 204.432 34.9883 205.896 34.9355L207.602 34.8828V34.4521C207.602 33.9365 207.467 33.5586 207.197 33.3184C206.928 33.0781 206.553 32.958 206.072 32.958C205.598 32.958 205.132 33.0254 204.675 33.1602C204.218 33.2949 203.761 33.4648 203.304 33.6699L202.416 31.8594C202.938 31.584 203.521 31.3672 204.165 31.209C204.815 31.0508 205.486 30.9717 206.178 30.9717ZM207.602 36.4473L206.564 36.4824C205.697 36.5059 205.094 36.6611 204.754 36.9482C204.42 37.2354 204.253 37.6133 204.253 38.082C204.253 38.4922 204.373 38.7852 204.613 38.9609C204.854 39.1309 205.167 39.2158 205.554 39.2158C206.128 39.2158 206.611 39.0459 207.004 38.7061C207.402 38.3662 207.602 37.8828 207.602 37.2559V36.4473ZM225.073 30.9893C226.187 30.9893 227.027 31.2764 227.596 31.8506C228.17 32.4189 228.457 33.333 228.457 34.5928V41H225.768V35.2607C225.768 34.5576 225.647 34.0273 225.407 33.6699C225.167 33.3125 224.795 33.1338 224.291 33.1338C223.582 33.1338 223.078 33.3887 222.779 33.8984C222.48 34.4023 222.331 35.126 222.331 36.0693V41H219.65V35.2607C219.65 34.792 219.598 34.3994 219.492 34.083C219.387 33.7666 219.226 33.5293 219.009 33.3711C218.792 33.2129 218.514 33.1338 218.174 33.1338C217.676 33.1338 217.283 33.2598 216.996 33.5117C216.715 33.7578 216.513 34.124 216.39 34.6104C216.272 35.0908 216.214 35.6797 216.214 36.377V41H213.533V31.1738H215.581L215.941 32.4307H216.091C216.29 32.0908 216.539 31.8154 216.838 31.6045C217.143 31.3936 217.477 31.2383 217.84 31.1387C218.203 31.0391 218.572 30.9893 218.947 30.9893C219.668 30.9893 220.277 31.1064 220.775 31.3408C221.279 31.5752 221.666 31.9385 221.936 32.4307H222.173C222.466 31.9268 222.879 31.5605 223.412 31.332C223.951 31.1035 224.505 30.9893 225.073 30.9893ZM235.769 30.9893C236.677 30.9893 237.459 31.165 238.115 31.5166C238.771 31.8623 239.278 32.3662 239.636 33.0283C239.993 33.6904 240.172 34.499 240.172 35.4541V36.7549H233.835C233.864 37.5107 234.09 38.1055 234.512 38.5391C234.939 38.9668 235.531 39.1807 236.287 39.1807C236.914 39.1807 237.488 39.1162 238.01 38.9873C238.531 38.8584 239.067 38.665 239.618 38.4072V40.4814C239.132 40.7217 238.622 40.8975 238.089 41.0088C237.562 41.1201 236.92 41.1758 236.164 41.1758C235.18 41.1758 234.307 40.9941 233.545 40.6309C232.789 40.2676 232.194 39.7139 231.761 38.9697C231.333 38.2256 231.119 37.2881 231.119 36.1572C231.119 35.0088 231.312 34.0537 231.699 33.292C232.092 32.5244 232.637 31.9502 233.334 31.5693C234.031 31.1826 234.843 30.9893 235.769 30.9893ZM235.786 32.8965C235.265 32.8965 234.831 33.0635 234.485 33.3975C234.146 33.7314 233.949 34.2559 233.896 34.9707H237.658C237.652 34.5723 237.579 34.2178 237.438 33.9072C237.304 33.5967 237.099 33.3506 236.823 33.1689C236.554 32.9873 236.208 32.8965 235.786 32.8965Z" fill="#21203C"/>
<path d="M139.39 68H132.615V66.7832L135.192 64.1924C135.953 63.4131 136.457 62.8617 136.703 62.5381C136.954 62.21 137.136 61.9023 137.25 61.6152C137.364 61.3281 137.421 61.0205 137.421 60.6924C137.421 60.2412 137.284 59.8857 137.011 59.626C136.742 59.3662 136.368 59.2363 135.89 59.2363C135.507 59.2363 135.135 59.307 134.775 59.4482C134.42 59.5895 134.007 59.8447 133.538 60.2139L132.67 59.1543C133.226 58.6849 133.766 58.3522 134.29 58.1562C134.814 57.9603 135.372 57.8623 135.965 57.8623C136.895 57.8623 137.64 58.1061 138.2 58.5938C138.761 59.0768 139.041 59.7285 139.041 60.5488C139.041 61 138.959 61.4284 138.795 61.834C138.635 62.2396 138.387 62.6589 138.05 63.0918C137.717 63.5202 137.161 64.1012 136.382 64.835L134.646 66.5166V66.585H139.39V68ZM145.83 68H144.224V61.5469C144.224 60.7767 144.242 60.166 144.278 59.7148C144.174 59.8242 144.044 59.945 143.889 60.0771C143.738 60.2093 143.228 60.6286 142.357 61.335L141.551 60.3164L144.49 58.0059H145.83V68ZM156.741 65.8193H155.395V68H153.829V65.8193H149.263V64.582L153.829 57.9785H155.395V64.4863H156.741V65.8193ZM153.829 64.4863V61.9775C153.829 61.0843 153.852 60.3529 153.897 59.7832H153.843C153.715 60.084 153.515 60.4486 153.241 60.877L150.76 64.4863H153.829ZM161.5 61.7588C162.507 61.7588 163.305 62.0254 163.893 62.5586C164.48 63.0918 164.774 63.8187 164.774 64.7393C164.774 65.8057 164.439 66.6396 163.77 67.2412C163.104 67.8382 162.156 68.1367 160.926 68.1367C159.809 68.1367 158.932 67.9567 158.294 67.5967V66.1406C158.663 66.3503 159.087 66.512 159.565 66.626C160.044 66.7399 160.488 66.7969 160.898 66.7969C161.623 66.7969 162.174 66.6351 162.553 66.3115C162.931 65.988 163.12 65.514 163.12 64.8896C163.12 63.6956 162.359 63.0986 160.837 63.0986C160.623 63.0986 160.358 63.1214 160.044 63.167C159.729 63.208 159.454 63.2559 159.217 63.3105L158.499 62.8867L158.882 58.0059H164.077V59.4346H160.297L160.071 61.9092C160.231 61.8818 160.424 61.8499 160.652 61.8135C160.885 61.777 161.167 61.7588 161.5 61.7588ZM173.082 62.6543H174.217C174.978 62.6543 175.529 62.513 175.871 62.2305C176.213 61.9479 176.384 61.5286 176.384 60.9727C176.384 60.4076 176.199 60.002 175.83 59.7559C175.461 59.5098 174.905 59.3867 174.162 59.3867H173.082V62.6543ZM173.082 64.0078V68H171.448V58.0059H174.271C175.561 58.0059 176.516 58.2474 177.136 58.7305C177.756 59.2135 178.065 59.9427 178.065 60.918C178.065 62.1621 177.418 63.0485 176.124 63.5771L178.947 68H177.088L174.695 64.0078H173.082ZM184.034 68.1367C182.858 68.1367 181.938 67.7949 181.272 67.1113C180.612 66.4232 180.281 65.4775 180.281 64.2744C180.281 63.0394 180.589 62.0687 181.204 61.3623C181.819 60.6559 182.665 60.3027 183.74 60.3027C184.738 60.3027 185.527 60.6058 186.105 61.2119C186.684 61.818 186.974 62.652 186.974 63.7139V64.582H181.936C181.958 65.3158 182.157 65.8809 182.53 66.2773C182.904 66.6693 183.43 66.8652 184.109 66.8652C184.556 66.8652 184.971 66.8242 185.354 66.7422C185.741 66.6556 186.156 66.5143 186.598 66.3184V67.624C186.206 67.8109 185.809 67.943 185.408 68.0205C185.007 68.098 184.549 68.1367 184.034 68.1367ZM183.74 61.5195C183.23 61.5195 182.82 61.6813 182.51 62.0049C182.204 62.3285 182.022 62.8001 181.963 63.4199H185.395C185.385 62.7956 185.235 62.3239 184.943 62.0049C184.652 61.6813 184.251 61.5195 183.74 61.5195ZM191.021 68L188.15 60.4395H189.846L191.384 64.835C191.648 65.5732 191.808 66.1702 191.862 66.626H191.917C191.958 66.2979 192.118 65.7008 192.396 64.835L193.934 60.4395H195.643L192.758 68H191.021ZM198.897 68H197.291V60.4395H198.897V68ZM197.195 58.4365C197.195 58.1494 197.273 57.9284 197.428 57.7734C197.587 57.6185 197.813 57.541 198.104 57.541C198.387 57.541 198.606 57.6185 198.761 57.7734C198.92 57.9284 199 58.1494 199 58.4365C199 58.71 198.92 58.9264 198.761 59.0859C198.606 59.2409 198.387 59.3184 198.104 59.3184C197.813 59.3184 197.587 59.2409 197.428 59.0859C197.273 58.9264 197.195 58.71 197.195 58.4365ZM205.003 68.1367C203.827 68.1367 202.907 67.7949 202.241 67.1113C201.58 66.4232 201.25 65.4775 201.25 64.2744C201.25 63.0394 201.558 62.0687 202.173 61.3623C202.788 60.6559 203.633 60.3027 204.709 60.3027C205.707 60.3027 206.495 60.6058 207.074 61.2119C207.653 61.818 207.942 62.652 207.942 63.7139V64.582H202.904C202.927 65.3158 203.125 65.8809 203.499 66.2773C203.873 66.6693 204.399 66.8652 205.078 66.8652C205.525 66.8652 205.939 66.8242 206.322 66.7422C206.71 66.6556 207.124 66.5143 207.566 66.3184V67.624C207.174 67.8109 206.778 67.943 206.377 68.0205C205.976 68.098 205.518 68.1367 205.003 68.1367ZM204.709 61.5195C204.199 61.5195 203.788 61.6813 203.479 62.0049C203.173 62.3285 202.991 62.8001 202.932 63.4199H206.363C206.354 62.7956 206.204 62.3239 205.912 62.0049C205.62 61.6813 205.219 61.5195 204.709 61.5195ZM216.468 68L215.49 64.4727C215.372 64.099 215.158 63.2308 214.848 61.8682H214.786C214.522 63.0986 214.312 63.9714 214.157 64.4863L213.152 68H211.375L209.256 60.4395H210.896L211.86 64.165C212.079 65.0856 212.234 65.874 212.325 66.5303H212.366C212.412 66.1976 212.48 65.8171 212.571 65.3887C212.667 64.9557 212.749 64.6322 212.817 64.418L213.966 60.4395H215.729L216.844 64.418C216.912 64.6413 216.996 64.9831 217.097 65.4434C217.201 65.9036 217.263 66.2614 217.281 66.5166H217.336C217.404 65.9561 217.564 65.1722 217.814 64.165L218.792 60.4395H220.405L218.272 68H216.468ZM227.29 65.8467C227.29 66.585 227.021 67.1523 226.483 67.5488C225.946 67.9408 225.175 68.1367 224.173 68.1367C223.166 68.1367 222.357 67.984 221.746 67.6787V66.291C222.635 66.7012 223.462 66.9062 224.228 66.9062C225.216 66.9062 225.711 66.6077 225.711 66.0107C225.711 65.8193 225.656 65.6598 225.547 65.5322C225.438 65.4046 225.257 65.2725 225.007 65.1357C224.756 64.999 224.408 64.8441 223.961 64.6709C223.09 64.3337 222.5 63.9964 222.19 63.6592C221.885 63.3219 221.732 62.8844 221.732 62.3467C221.732 61.6995 221.992 61.1982 222.512 60.8428C223.036 60.4827 223.747 60.3027 224.645 60.3027C225.533 60.3027 226.374 60.4827 227.167 60.8428L226.647 62.0527C225.832 61.7155 225.146 61.5469 224.59 61.5469C223.742 61.5469 223.318 61.7884 223.318 62.2715C223.318 62.5085 223.428 62.709 223.646 62.873C223.87 63.0371 224.353 63.2627 225.096 63.5498C225.72 63.7913 226.174 64.0124 226.456 64.2129C226.739 64.4134 226.948 64.6458 227.085 64.9102C227.222 65.1699 227.29 65.4821 227.29 65.8467Z" fill="#8A8A9B"/>
<path d="M281.465 50.876C281.465 51.6006 281.203 52.1839 280.679 52.626C280.155 53.0635 279.421 53.3255 278.478 53.4121V54.8135H277.541V53.4395C276.429 53.4167 275.454 53.2207 274.615 52.8516V51.0469C275.012 51.2428 275.488 51.416 276.044 51.5664C276.604 51.7168 277.104 51.8057 277.541 51.833V49.7139L277.083 49.5361C276.181 49.1807 275.54 48.7956 275.162 48.3809C274.788 47.9616 274.602 47.4443 274.602 46.8291C274.602 46.1683 274.859 45.626 275.374 45.2021C275.894 44.7738 276.616 44.514 277.541 44.4229V43.377H278.478V44.3955C279.521 44.4411 280.465 44.6507 281.308 45.0244L280.665 46.624C279.954 46.3324 279.225 46.1546 278.478 46.0908V48.1074C279.366 48.4492 279.997 48.7454 280.371 48.9961C280.749 49.2467 281.025 49.5225 281.198 49.8232C281.376 50.124 281.465 50.4749 281.465 50.876ZM279.407 50.9785C279.407 50.7871 279.33 50.6253 279.175 50.4932C279.02 50.361 278.787 50.2243 278.478 50.083V51.7852C279.097 51.6803 279.407 51.4115 279.407 50.9785ZM276.659 46.8291C276.659 47.0296 276.728 47.196 276.864 47.3281C277.006 47.4557 277.231 47.5879 277.541 47.7246V46.1182C276.953 46.2048 276.659 46.4417 276.659 46.8291ZM289.655 46.2412C289.655 46.8656 289.466 47.3965 289.088 47.834C288.71 48.2715 288.179 48.5723 287.495 48.7363V48.7773C288.302 48.8776 288.912 49.1237 289.327 49.5156C289.742 49.903 289.949 50.4271 289.949 51.0879C289.949 52.0495 289.601 52.7992 288.903 53.3369C288.206 53.8701 287.21 54.1367 285.916 54.1367C284.831 54.1367 283.87 53.9567 283.031 53.5967V51.7988C283.419 51.9948 283.845 52.1543 284.31 52.2773C284.774 52.4004 285.235 52.4619 285.69 52.4619C286.388 52.4619 286.903 52.3434 287.235 52.1064C287.568 51.8695 287.734 51.4889 287.734 50.9648C287.734 50.4954 287.543 50.1628 287.16 49.9668C286.777 49.7708 286.167 49.6729 285.328 49.6729H284.569V48.0527H285.342C286.117 48.0527 286.682 47.9525 287.037 47.752C287.397 47.5469 287.577 47.1982 287.577 46.7061C287.577 45.9495 287.103 45.5713 286.155 45.5713C285.827 45.5713 285.492 45.626 285.15 45.7354C284.813 45.8447 284.437 46.0339 284.022 46.3027L283.045 44.8467C283.956 44.1904 285.043 43.8623 286.306 43.8623C287.34 43.8623 288.156 44.0719 288.753 44.4912C289.354 44.9105 289.655 45.4938 289.655 46.2412ZM295.193 47.6152C296.16 47.6152 296.927 47.8864 297.497 48.4287C298.071 48.971 298.358 49.7139 298.358 50.6572C298.358 51.7738 298.014 52.6328 297.326 53.2344C296.638 53.8359 295.654 54.1367 294.373 54.1367C293.261 54.1367 292.363 53.9567 291.68 53.5967V51.7715C292.04 51.9629 292.459 52.1201 292.938 52.2432C293.416 52.3617 293.869 52.4209 294.298 52.4209C295.588 52.4209 296.232 51.8923 296.232 50.835C296.232 49.8278 295.565 49.3242 294.229 49.3242C293.988 49.3242 293.721 49.3493 293.43 49.3994C293.138 49.445 292.901 49.4951 292.719 49.5498L291.878 49.0986L292.254 44.0059H297.675V45.7969H294.106L293.922 47.7588L294.161 47.7109C294.439 47.6471 294.783 47.6152 295.193 47.6152Z" fill="white"/>
<path fill-rule="evenodd" clip-rule="evenodd" d="M123.867 62.0001C123.867 66.9731 119.86 71.0195 114.936 71.0195C110.011 71.0195 106.004 66.9731 106.004 62.0001C106.004 57.0272 110.011 52.9807 114.936 52.9807C119.86 52.9807 123.867 57.0272 123.867 62.0001ZM122.295 62.0001C122.295 57.9025 118.993 54.5689 114.936 54.5689C110.878 54.5689 107.576 57.9025 107.576 62.0001C107.576 66.0978 110.878 69.4313 114.936 69.4313C118.993 69.4313 122.295 66.0978 122.295 62.0001Z" fill="#AFAFAF"/>
<path fill-rule="evenodd" clip-rule="evenodd" d="M120.035 60.7312C120.173 61.1618 120.059 61.6277 119.738 61.9436L118.188 63.47L118.553 65.6265C118.63 66.073 118.45 66.5177 118.086 66.7842C117.723 67.0506 117.251 67.0842 116.852 66.8742L114.935 65.8559L113.018 66.8742C112.845 66.9659 112.658 67.01 112.471 67.01C112.228 67.01 111.989 66.9342 111.783 66.7824C111.419 66.5159 111.241 66.073 111.318 65.6248L111.683 63.47L110.133 61.9436C109.81 61.6259 109.698 61.1618 109.836 60.7295C109.974 60.2989 110.338 59.99 110.781 59.9248L112.926 59.6106L113.885 57.6483C114.084 57.2406 114.486 56.9883 114.935 56.9883C115.385 56.9883 115.788 57.2424 115.986 57.6483L116.945 59.6106L119.088 59.9248C119.533 59.99 119.897 60.2989 120.035 60.7312ZM118.058 61.3789L116.51 61.1512C116.129 61.0948 115.799 60.853 115.629 60.5053L114.935 59.0865L114.243 60.5036C114.072 60.853 113.742 61.0948 113.361 61.1512L111.812 61.3789L112.933 62.4818C113.209 62.7536 113.335 63.1453 113.27 63.53L113.004 65.0865L114.39 64.3506C114.731 64.1689 115.14 64.1689 115.481 64.3506L116.866 65.0865L116.601 63.5283C116.536 63.1453 116.662 62.7536 116.938 62.4818L118.058 61.3789Z" fill="#AFAFAF"/>
<defs>
<filter id="filter0_d_209_282" x="0" y="0" width="363" height="137" filterUnits="userSpaceOnUse" color-interpolation-filters="sRGB">
<feFlood flood-opacity="0" result="BackgroundImageFix"/>
<feColorMatrix in="SourceAlpha" type="matrix" values="0 0 0 0 0 0 0 0 0 0 0 0 0 0 0 0 0 0 127 0" result="hardAlpha"/>
<feOffset dx="10" dy="20"/>
<feGaussianBlur stdDeviation="12"/>
<feColorMatrix type="matrix" values="0 0 0 0 0.929412 0 0 0 0 0.435294 0 0 0 0 0.235294 0 0 0 0.1 0"/>
<feBlend mode="normal" in2="BackgroundImageFix" result="effect1_dropShadow_209_282"/>
<feBlend mode="normal" in="SourceGraphic" in2="effect1_dropShadow_209_282" result="shape"/>
</filter>
</defs>
</svg>
