<svg width="61" height="63" viewBox="0 0 61 63" fill="none" xmlns="http://www.w3.org/2000/svg">
<path d="M8.42778 52.4611H10.4108L12.6642 52.728V58.6673H10.546C10.2681 58.6733 9.99176 58.624 9.73351 58.5225C9.47526 58.4209 9.24034 58.2691 9.04272 58.0761C8.8451 57.8831 8.68883 57.6528 8.58318 57.399C8.47754 57.1452 8.42469 56.873 8.42778 56.5986V52.4611ZM35.7167 50.3701C35.2427 50.3746 34.7843 50.5377 34.4163 50.8325C34.0483 51.1274 33.7924 51.5367 33.6904 51.9936C33.5884 52.4505 33.6464 52.9281 33.8548 53.3483C34.0632 53.7685 34.4097 54.1066 34.8378 54.3074L39.0292 56.3761C39.2763 56.4988 39.5454 56.5722 39.8213 56.5923C40.0971 56.6123 40.3743 56.5784 40.6369 56.4927C40.8995 56.407 41.1424 56.2711 41.3518 56.0927C41.5612 55.9143 41.7329 55.6969 41.8572 55.453C41.9815 55.209 42.0559 54.9434 42.0762 54.671C42.0964 54.3987 42.0622 54.1252 41.9753 53.8659C41.8885 53.6067 41.7508 53.3669 41.5701 53.1602C41.3893 52.9535 41.1691 52.784 40.9221 52.6613L36.7082 50.5925C36.3991 50.4448 36.06 50.3687 35.7167 50.3701ZM35.7167 42.6735C35.1954 42.7268 34.7127 42.9689 34.3618 43.353C34.0109 43.7372 33.8166 44.2361 33.8166 44.7534C33.8166 45.2706 34.0109 45.7696 34.3618 46.1537C34.7127 46.5378 35.1954 46.7799 35.7167 46.8332H39.9756C40.4968 46.7799 40.9796 46.5378 41.3305 46.1537C41.6814 45.7696 41.8756 45.2706 41.8756 44.7534C41.8756 44.2361 41.6814 43.7372 41.3305 43.353C40.9796 42.9689 40.4968 42.7268 39.9756 42.6735H35.7167ZM4.16882 42.0729H8.42778V48.3014H4.21389L4.16882 42.0729ZM25.2157 40.2489V50.1032L12.5966 48.5461V41.8727L25.2157 40.2489ZM39.9531 33.7535C39.6173 33.7554 39.2863 33.8314 38.9841 33.9759L34.8378 36.1336C34.5907 36.2549 34.3702 36.423 34.189 36.6283C34.0077 36.8336 33.8691 37.0722 33.7812 37.3304C33.6934 37.5886 33.6578 37.8614 33.6767 38.1331C33.6956 38.4049 33.7686 38.6703 33.8914 38.9142C34.0142 39.1581 34.1845 39.3758 34.3925 39.5547C34.6005 39.7337 34.8422 39.8705 35.1038 39.9572C35.3653 40.044 35.6416 40.079 35.9169 40.0604C36.1922 40.0417 36.4611 39.9697 36.7082 39.8485L40.9221 37.7797C41.4315 37.6299 41.8643 37.2946 42.1327 36.8416C42.4011 36.3886 42.4851 35.8519 42.3676 35.3401C42.2502 34.8283 41.9401 34.3796 41.5002 34.0851C41.0602 33.7905 40.5233 33.672 39.9982 33.7535H39.9531ZM21.2723 27.5473H12.4839C12.2087 27.5575 11.9382 27.6211 11.688 27.7345C11.4377 27.8479 11.2124 28.0089 11.0252 28.2082C10.8379 28.4076 10.6922 28.6414 10.5965 28.8963C10.5007 29.1512 10.4568 29.4222 10.4671 29.6939C10.4775 29.9655 10.5419 30.2325 10.6568 30.4796C10.7717 30.7267 10.9348 30.949 11.1367 31.1339C11.3386 31.3188 11.5755 31.4625 11.8337 31.5571C12.0919 31.6516 12.3665 31.695 12.6417 31.6847H21.0469C21.3221 31.6994 21.5975 31.6603 21.8575 31.5698C22.1174 31.4794 22.3567 31.3392 22.5618 31.1575C22.7668 30.9757 22.9336 30.7558 23.0526 30.5104C23.1716 30.265 23.2405 29.9989 23.2553 29.7272C23.2701 29.4556 23.2305 29.1837 23.1389 28.9271C23.0472 28.6705 22.9053 28.4343 22.7211 28.2318C22.537 28.0294 22.3143 27.8648 22.0657 27.7473C21.8171 27.6299 21.5475 27.5619 21.2723 27.5473ZM34.2294 23.4765L35.7392 25.9234L34.6576 27.5473H31.3676L34.2294 23.4765ZM12.6417 21.2521C12.0859 21.2521 11.5528 21.47 11.1598 21.858C10.7668 22.246 10.546 22.7722 10.546 23.3208C10.546 23.8695 10.7668 24.3957 11.1598 24.7836C11.5528 25.1716 12.0859 25.3896 12.6417 25.3896H16.833C17.3888 25.3896 17.9219 25.1716 18.3149 24.7836C18.7079 24.3957 18.9287 23.8695 18.9287 23.3208C18.9287 22.7722 18.7079 22.246 18.3149 21.858C17.9219 21.47 17.3888 21.2521 16.833 21.2521H12.6417ZM44.1895 20.8294L48.6963 27.5028H39.6827L44.1895 20.8294ZM44.1895 15.0014C43.8474 15.0167 43.5133 15.1088 43.2126 15.2707C42.912 15.4326 42.6527 15.66 42.4544 15.9357L38.3081 22.1196L36.0547 18.605C35.8704 18.3076 35.6122 18.0615 35.3046 17.8902C34.997 17.719 34.6502 17.6281 34.297 17.6262C33.9518 17.6165 33.6098 17.6929 33.3025 17.8484C32.9952 18.004 32.7327 18.2336 32.5393 18.516C30.2859 21.8082 27.8748 25.1894 25.6214 28.4593C25.4088 28.7704 25.286 29.1326 25.266 29.5073C25.2461 29.8819 25.3297 30.2549 25.5079 30.5863C25.6862 30.9176 25.9524 31.1949 26.278 31.3884C26.6036 31.5819 26.9764 31.6843 27.3565 31.6847H52.5948C53.0545 31.7233 53.5143 31.611 53.9028 31.3653C54.2913 31.1196 54.5868 30.7542 54.7434 30.3258C54.9001 29.8974 54.9091 29.4299 54.7692 28.9959C54.6292 28.5619 54.3481 28.1856 53.9693 27.9254L45.9472 16.1136C45.7568 15.8115 45.4957 15.5589 45.186 15.377C44.8762 15.1951 44.5268 15.0891 44.167 15.0681L44.1895 15.0014ZM48.2006 6.72644C47.6448 6.75299 47.1224 6.99641 46.7484 7.40314C46.3744 7.80988 46.1794 8.34662 46.2063 8.89528C46.2332 9.44394 46.4798 9.95959 46.8918 10.3288C47.3039 10.698 47.8476 10.8905 48.4034 10.8639H52.5948C53.1506 10.8639 53.6836 10.646 54.0766 10.258C54.4696 9.87004 54.6904 9.34384 54.6904 8.79518C54.6904 8.24652 54.4696 7.72033 54.0766 7.33236C53.6836 6.9444 53.1506 6.72644 52.5948 6.72644H48.2006ZM39.7953 6.72644C39.2395 6.75299 38.7172 6.99641 38.3432 7.40314C37.9692 7.80988 37.7742 8.34662 37.8011 8.89528C37.828 9.44394 38.0746 9.95959 38.4866 10.3288C38.8986 10.698 39.4423 10.8905 39.9982 10.8639H42.1164C42.6722 10.8639 43.2052 10.646 43.5982 10.258C43.9912 9.87004 44.212 9.34384 44.212 8.79518C44.212 8.24652 43.9912 7.72033 43.5982 7.33236C43.2052 6.9444 42.6722 6.72644 42.1164 6.72644H39.7953ZM31.3901 6.72644C30.8343 6.75299 30.3119 6.99641 29.9379 7.40314C29.5639 7.80988 29.3689 8.34662 29.3958 8.89528C29.4227 9.44394 29.6693 9.95959 30.0813 10.3288C30.4934 10.698 31.0371 10.8905 31.5929 10.8639H33.6886C34.2444 10.8639 34.7774 10.646 35.1705 10.258C35.5635 9.87004 35.7843 9.34384 35.7843 8.79518C35.7843 8.24652 35.5635 7.72033 35.1705 7.33236C34.7774 6.9444 34.2444 6.72644 33.6886 6.72644H31.3901ZM12.4839 6.79318C11.9281 6.81973 11.4058 7.06314 11.0318 7.46988C10.6578 7.87661 10.4628 8.41335 10.4897 8.96201C10.5166 9.51068 10.7631 10.0263 11.1752 10.3955C11.5872 10.7647 12.1309 10.9572 12.6867 10.9307H14.7373C15.2932 10.9307 15.8262 10.7127 16.2192 10.3247C16.6122 9.93677 16.833 9.41058 16.833 8.86191C16.833 8.31325 16.6122 7.78706 16.2192 7.3991C15.8262 7.01113 15.2932 6.79318 14.7373 6.79318H12.4839ZM12.6867 4.7022H52.5948C53.1479 4.69629 53.6967 4.7991 54.2092 5.00466C54.7217 5.21022 55.1876 5.5144 55.5798 5.89949C55.972 6.28457 56.2826 6.74286 56.4936 7.24765C56.7046 7.75243 56.8117 8.29362 56.8086 8.83967V54.5298C56.8117 55.0759 56.7046 55.6171 56.4936 56.1218C56.2826 56.6266 55.972 57.0849 55.5798 57.47C55.1876 57.8551 54.7217 58.1593 54.2092 58.3648C53.6967 58.5704 53.1479 58.6732 52.5948 58.6673H16.833V53.2396L25.0129 54.2629C25.5722 54.3317 26.14 54.2834 26.6791 54.1211C27.2182 53.9588 27.7166 53.6862 28.1419 53.321C28.5671 52.9558 28.9096 52.5063 29.147 52.0016C29.3844 51.497 29.5114 50.9487 29.5198 50.3923V47.7008L31.007 46.2326C31.206 46.0419 31.3642 45.8137 31.4722 45.5615C31.5802 45.3093 31.6359 45.0383 31.6359 44.7645C31.6359 44.4907 31.5802 44.2197 31.4722 43.9675C31.3642 43.7153 31.206 43.4871 31.007 43.2964L29.5198 41.8505V39.9819C29.515 39.4245 29.3903 38.8744 29.1541 38.3681C28.9178 37.8618 28.5753 37.4107 28.1493 37.0448C27.7233 36.6789 27.2234 36.4065 26.6827 36.2456C26.142 36.0847 25.5729 36.0389 25.0129 36.1114L10.4108 37.9354H8.42778V8.83967C8.42476 8.29362 8.53186 7.75243 8.74283 7.24765C8.95381 6.74286 9.26445 6.28457 9.65665 5.89949C10.0488 5.5144 10.5148 5.21022 11.0272 5.00466C11.5397 4.7991 12.0885 4.69629 12.6417 4.7022H12.6867ZM12.6417 0.54248C10.4122 0.548318 8.2754 1.42365 6.69681 2.97778C5.11823 4.53191 4.22577 6.63888 4.21389 8.83967V37.9354C3.10199 37.9412 2.03697 38.3783 1.24862 39.1523C0.460277 39.9264 0.0118135 40.9754 0 42.0729V48.3014C0.0117268 49.401 0.459454 50.4523 1.24718 51.2299C2.03491 52.0075 3.09993 52.4495 4.21389 52.4611V56.5986C4.22575 58.2507 4.8974 59.8315 6.08298 60.9976C7.26855 62.1638 8.87232 62.8212 10.546 62.827H52.5948C54.8221 62.8211 56.9566 61.9451 58.5316 60.3903C60.1066 58.8356 60.994 56.7286 61 54.5298V8.83967C60.994 6.64092 60.1066 4.53391 58.5316 2.97916C56.9566 1.4244 54.8221 0.548352 52.5948 0.54248H12.6417Z" fill="#AFAFAF"/>
</svg>
