<svg width="63" height="59" viewBox="0 0 63 59" fill="none" xmlns="http://www.w3.org/2000/svg">
<path d="M58.7925 33.45V48.6018C58.8013 50.0723 58.2608 51.4958 57.2716 52.6075C56.2824 53.7192 54.9118 54.4433 53.415 54.645L41.85 41.1573L58.7925 33.45ZM4.2075 33.45L21.15 41.1791L16.9875 46.04C16.8117 46.2484 16.6798 46.4886 16.5994 46.7466C16.5189 47.0047 16.4915 47.2757 16.5186 47.544C16.5458 47.8124 16.627 48.073 16.7577 48.3108C16.8883 48.5486 17.0658 48.7591 17.28 48.9302C17.4942 49.1013 17.741 49.2296 18.0062 49.3079C18.2713 49.3862 18.5498 49.4129 18.8256 49.3865C19.1014 49.36 19.3691 49.281 19.6135 49.1539C19.8579 49.0267 20.0742 48.854 20.25 48.6456L28.35 39.1866C28.7383 38.7241 29.2274 38.3513 29.7819 38.0954C30.3364 37.8394 30.9425 37.7066 31.5562 37.7066C32.17 37.7066 32.7761 37.8394 33.3306 38.0954C33.8851 38.3513 34.3742 38.7241 34.7625 39.1866L48.06 54.7325H10.5075C9.6785 54.7384 8.85658 54.5838 8.08953 54.2777C7.32248 53.9717 6.62559 53.5203 6.03938 52.9499C5.45318 52.3794 4.98935 51.7012 4.67487 50.9548C4.36038 50.2083 4.20151 49.4085 4.2075 48.6018V33.45ZM23.1075 20.028H25.2V24.1225H23.1075C22.7098 24.085 22.3216 23.9813 21.96 23.8159C21.3975 23.5532 21.015 23.4218 21.015 22.0643C21.015 20.7067 21.3975 20.5754 21.96 20.3126C22.3192 20.1409 22.7086 20.0369 23.1075 20.0061V20.028ZM8.3925 19.8528V30.8006L4.2075 28.8957V26.1369C4.21331 25.1683 4.4452 24.2136 4.88565 23.345C5.32609 22.4764 5.96359 21.7165 6.75 21.1228L8.3925 19.8528ZM37.8225 18.342V25.7865L29.4075 24.4071V19.6776L37.8225 18.342ZM52.515 18.342L56.25 21.1228C57.0319 21.7176 57.6635 22.4788 58.0964 23.3479C58.5293 24.217 58.752 25.171 58.7475 26.1369V28.9176L52.515 31.8516V18.342ZM38.25 14.1818C37.966 14.1496 37.679 14.1496 37.395 14.1818L27 15.9116H23.1075C22.0511 15.9398 21.0141 16.194 20.07 16.656C19.081 17.1908 18.2569 17.9733 17.6832 18.9223C17.1094 19.8713 16.8069 20.9523 16.8069 22.0533C16.8069 23.1544 17.1094 24.2354 17.6832 25.1844C18.2569 26.1334 19.081 26.9158 20.07 27.4506C21.0178 27.8998 22.0536 28.1462 23.1075 28.1731V30.2094C23.077 30.4961 23.1087 30.7857 23.2005 31.0597C23.2923 31.3337 23.4423 31.5858 23.6406 31.7998C23.8389 32.0138 24.0812 32.1849 24.3517 32.302C24.6223 32.4191 24.9151 32.4796 25.2113 32.4796C25.5074 32.4796 25.8002 32.4191 26.0708 32.302C26.3413 32.1849 26.5836 32.0138 26.7819 31.7998C26.9802 31.5858 27.1302 31.3337 27.222 31.0597C27.3138 30.7857 27.3455 30.4961 27.315 30.2094V28.2169L37.485 29.8591C38.0379 29.9369 38.6014 29.8992 39.1382 29.7488C39.6749 29.5983 40.1727 29.3384 40.5983 28.9863C41.0239 28.6343 41.3677 28.1981 41.6068 27.7068C41.8458 27.2155 41.9748 26.6804 41.985 26.1369V24.1006C42.2795 24.1302 42.5772 24.0994 42.8587 24.01C43.1403 23.9207 43.3994 23.7748 43.6193 23.5818C43.8392 23.3888 44.015 23.153 44.1353 22.8897C44.2557 22.6264 44.3179 22.3415 44.3179 22.0533C44.3179 21.7652 44.2557 21.4802 44.1353 21.2169C44.015 20.9536 43.8392 20.7178 43.6193 20.5248C43.3994 20.3319 43.1403 20.186 42.8587 20.0966C42.5772 20.0072 42.2795 19.9764 41.985 20.0061V17.9479C41.9639 16.9779 41.5677 16.0513 40.8753 15.3532C40.1829 14.655 39.2454 14.2367 38.25 14.1818ZM14.715 11.839H46.215C46.4896 11.8331 46.7625 11.881 47.0176 11.9799C47.2728 12.0788 47.5049 12.2266 47.7001 12.4145C47.8953 12.6025 48.0497 12.8267 48.154 13.0739C48.2584 13.3211 48.3106 13.5862 48.3075 13.8534V33.7127L39.0825 37.9167L37.935 36.5811C37.1451 35.6688 36.1599 34.9356 35.0484 34.4326C33.9369 33.9295 32.7258 33.6689 31.5 33.6689C30.2742 33.6689 29.0631 33.9295 27.9516 34.4326C26.8401 34.9356 25.8549 35.6688 25.065 36.5811L23.94 37.9167L12.69 32.7493V13.8534C12.6899 13.3267 12.9018 12.8208 13.2803 12.4443C13.6588 12.0677 14.1738 11.8505 14.715 11.839ZM31.5 4.56966C33.5582 4.5768 35.5546 5.25522 37.17 6.49647L38.79 7.74452H24.21L25.83 6.49647C27.4471 5.25821 29.4424 4.58016 31.5 4.56966ZM31.5 0.49707C28.4988 0.530084 25.597 1.54852 23.265 3.38729L17.415 7.76642H14.715C13.0498 7.76633 11.4518 8.40553 10.268 9.54521C9.08424 10.6849 8.41028 12.233 8.3925 13.8534V14.6416L4.1175 17.9041C2.83869 18.8863 1.80424 20.1368 1.0913 21.5623C0.378354 22.9878 0.00531493 24.5515 0 26.1369V48.6018C0.0118432 51.3101 1.12268 53.9043 3.09066 55.8194C5.05864 57.7345 7.72439 58.8155 10.5075 58.827H52.515C55.296 58.8155 57.9594 57.7338 59.9238 55.818C61.8882 53.9023 62.9941 51.3081 63 48.6018V26.1369C62.999 24.553 62.6302 22.9899 61.9211 21.5642C61.212 20.1386 60.1809 18.8874 58.905 17.9041L52.4025 12.9338C52.1678 11.4986 51.4169 10.1911 50.2836 9.24466C49.1503 8.29822 47.7084 7.77432 46.215 7.76642H45.6075L39.7575 3.38729C37.4125 1.55591 34.5064 0.538734 31.5 0.49707Z" fill="white"/>
</svg>
