<svg width="63" height="63" viewBox="0 0 63 63" fill="none" xmlns="http://www.w3.org/2000/svg">
<path d="M27.315 54.5298H35.7075V58.6673H27.315V54.5298ZM17.055 46.2326H45.945C45.7566 47.0442 45.3876 47.8041 44.865 48.4571C44.2445 49.1349 43.4704 49.6576 42.606 49.9824C41.7416 50.3073 40.8117 50.4249 39.8925 50.3256H23.1075C22.1918 50.423 21.2657 50.3045 20.4053 49.9797C19.5448 49.6549 18.7745 49.1331 18.1575 48.4571C17.6275 47.8058 17.2508 47.0459 17.055 46.2326ZM10.5075 35.8445C9.95253 35.8445 9.4203 36.0624 9.02788 36.4504C8.63546 36.8383 8.415 37.3645 8.415 37.9132C8.415 38.4619 8.63546 38.9881 9.02788 39.376C9.4203 39.764 9.95253 39.9819 10.5075 39.9819H21.015C21.57 39.9819 22.1022 39.764 22.4946 39.376C22.887 38.9881 23.1075 38.4619 23.1075 37.9132C23.1075 37.3645 22.887 36.8383 22.4946 36.4504C22.1022 36.0624 21.57 35.8445 21.015 35.8445H10.5075ZM31.5 33.62H33.525L35.775 33.8647V35.6887H31.5V33.62ZM10.5075 28.5705C10.213 28.5404 9.91529 28.5717 9.63376 28.6625C9.35224 28.7533 9.09314 28.9015 8.87323 29.0975C8.65332 29.2936 8.47751 29.5331 8.35717 29.8006C8.23683 30.0681 8.17464 30.3576 8.17464 30.6504C8.17464 30.9431 8.23683 31.2326 8.35717 31.5001C8.47751 31.7676 8.65332 32.0071 8.87323 32.2032C9.09314 32.3993 9.35224 32.5475 9.63376 32.6383C9.91529 32.7291 10.213 32.7604 10.5075 32.7302H16.8075C17.102 32.7604 17.3997 32.7291 17.6812 32.6383C17.9628 32.5475 18.2219 32.3993 18.4418 32.2032C18.6617 32.0071 18.8375 31.7676 18.9578 31.5001C19.0782 31.2326 19.1404 30.9431 19.1404 30.6504C19.1404 30.3576 19.0782 30.0681 18.9578 29.8006C18.8375 29.5331 18.6617 29.2936 18.4418 29.0975C18.2219 28.9015 17.9628 28.7533 17.6812 28.6625C17.3997 28.5717 17.102 28.5404 16.8075 28.5705H10.5075ZM50.4 23.4098V31.2176L33.9525 29.4603H29.4525V25.2338H33.9525L50.4 23.4098ZM10.5075 21.3188C10.2327 21.3188 9.96061 21.3723 9.70674 21.4763C9.45286 21.5803 9.22219 21.7326 9.02788 21.9247C8.83357 22.1168 8.67944 22.3449 8.57428 22.5959C8.46912 22.8469 8.415 23.1159 8.415 23.3876C8.415 23.6592 8.46912 23.9282 8.57428 24.1792C8.67944 24.4302 8.83357 24.6583 9.02788 24.8504C9.22219 25.0425 9.45286 25.1949 9.70674 25.2988C9.96061 25.4028 10.2327 25.4563 10.5075 25.4563H18.9225C19.1973 25.4563 19.4694 25.4028 19.7233 25.2988C19.9771 25.1949 20.2078 25.0425 20.4021 24.8504C20.5964 24.6583 20.7506 24.4302 20.8557 24.1792C20.9609 23.9282 21.015 23.6592 21.015 23.3876C21.015 23.1159 20.9609 22.8469 20.8557 22.5959C20.7506 22.3449 20.5964 22.1168 20.4021 21.9247C20.2078 21.7326 19.9771 21.5803 19.7233 21.4763C19.4694 21.3723 19.1973 21.3188 18.9225 21.3188H10.5075ZM50.1975 19.2501L33.525 21.0964H29.4075C28.2973 21.1022 27.2339 21.5392 26.4467 22.3133C25.6596 23.0873 25.2118 24.1363 25.2 25.2338V29.4603C25.2043 30.1825 25.3996 30.891 25.7667 31.5154C26.1338 32.1398 26.6599 32.6583 27.2925 33.0194V35.6887C27.3216 36.7767 27.7763 37.8112 28.561 38.5745C29.3457 39.3379 30.3992 39.7706 31.5 39.7817H35.7075C36.8177 39.7701 37.8787 39.3274 38.6616 38.5492C39.4446 37.771 39.8867 36.7196 39.8925 35.622V34.2651L50.1975 35.3996C50.7603 35.4618 51.33 35.4067 51.8698 35.2377C52.4097 35.0688 52.9077 34.7898 53.3318 34.4188C53.7559 34.0478 54.0965 33.593 54.3317 33.0837C54.567 32.5745 54.6916 32.0221 54.6975 31.4623V23.1874C54.6916 22.6275 54.567 22.0752 54.3317 21.5659C54.0965 21.0567 53.7559 20.6019 53.3318 20.2309C52.9077 19.8598 52.4097 19.5808 51.8698 19.4119C51.33 19.243 50.7603 19.1878 50.1975 19.2501ZM8.3925 10.9307H12.6V12.9994C12.3055 12.9692 12.0078 13.0006 11.7263 13.0913C11.4447 13.1821 11.1856 13.3304 10.9657 13.5264C10.7458 13.7225 10.57 13.962 10.4497 14.2295C10.3293 14.497 10.2671 14.7865 10.2671 15.0792C10.2671 15.372 10.3293 15.6615 10.4497 15.929C10.57 16.1965 10.7458 16.436 10.9657 16.6321C11.1856 16.8281 11.4447 16.9764 11.7263 17.0671C12.0078 17.1579 12.3055 17.1893 12.6 17.1591H16.8075C17.102 17.1893 17.3997 17.1579 17.6812 17.0671C17.9628 16.9764 18.2219 16.8281 18.4418 16.6321C18.6617 16.436 18.8375 16.1965 18.9578 15.929C19.0782 15.6615 19.1404 15.372 19.1404 15.0792C19.1404 14.7865 19.0782 14.497 18.9578 14.2295C18.8375 13.962 18.6617 13.7225 18.4418 13.5264C18.2219 13.3304 17.9628 13.1821 17.6812 13.0913C17.3997 13.0006 17.102 12.9692 16.8075 12.9994V10.9307H46.215V12.9994C45.9205 12.9692 45.6228 13.0006 45.3413 13.0913C45.0597 13.1821 44.8006 13.3304 44.5807 13.5264C44.3608 13.7225 44.185 13.962 44.0647 14.2295C43.9443 14.497 43.8821 14.7865 43.8821 15.0792C43.8821 15.372 43.9443 15.6615 44.0647 15.929C44.185 16.1965 44.3608 16.436 44.5807 16.6321C44.8006 16.8281 45.0597 16.9764 45.3413 17.0671C45.6228 17.1579 45.9205 17.1893 46.215 17.1591H50.4225C50.717 17.1893 51.0147 17.1579 51.2962 17.0671C51.5778 16.9764 51.8369 16.8281 52.0568 16.6321C52.2767 16.436 52.4525 16.1965 52.5728 15.929C52.6932 15.6615 52.7554 15.372 52.7554 15.0792C52.7554 14.7865 52.6932 14.497 52.5728 14.2295C52.4525 13.962 52.2767 13.7225 52.0568 13.5264C51.8369 13.3304 51.5778 13.1821 51.2962 13.0913C51.0147 13.0006 50.717 12.9692 50.4225 12.9994V10.9307H54.6075C55.1607 10.9246 55.7095 11.0283 56.2214 11.2355C56.7334 11.4427 57.1982 11.7492 57.5883 12.137C57.9784 12.5247 58.286 12.9859 58.4928 13.4932C58.6997 14.0004 58.8016 14.5435 58.7925 15.0904V37.9354C58.7985 38.4804 58.6944 39.0211 58.4862 39.5258C58.278 40.0305 57.97 40.489 57.5802 40.8744C57.1904 41.2597 56.7266 41.5643 56.2161 41.7701C55.7057 41.9759 55.1588 42.0789 54.6075 42.0729H8.3925C7.84124 42.0789 7.29434 41.9759 6.78387 41.7701C6.2734 41.5643 5.80965 41.2597 5.41983 40.8744C5.03001 40.489 4.72197 40.0305 4.51379 39.5258C4.30561 39.0211 4.20147 38.4804 4.2075 37.9354V15.0904C4.19845 14.5435 4.30034 14.0004 4.50717 13.4932C4.714 12.9859 5.02156 12.5247 5.41169 12.137C5.80181 11.7492 6.26659 11.4427 6.77857 11.2355C7.29054 11.0283 7.83933 10.9246 8.3925 10.9307ZM44.1 4.7022H46.215V6.79318H44.1V4.7022ZM10.5075 4.7022H12.6V6.79318H10.5075V4.7022ZM10.5075 0.54248C9.39523 0.554057 8.33183 0.996028 7.54529 1.77363C6.75876 2.55123 6.31171 3.60256 6.3 4.7022V7.08236C4.50366 7.54349 2.9119 8.5788 1.77248 10.0271C0.633062 11.4755 0.0099041 13.2556 0 15.0904V37.9354C0.0118204 40.1324 0.899823 42.236 2.47117 43.7895C4.04251 45.343 6.17032 46.2209 8.3925 46.2326H12.78C13.055 48.059 13.8335 49.7753 15.03 51.1931C16.0579 52.3109 17.3233 53.1897 18.7354 53.7666C20.1476 54.3435 21.6714 54.6042 23.1975 54.5298V58.6673H21.105C20.5846 58.7206 20.1026 58.9627 19.7522 59.3468C19.4018 59.731 19.2079 60.2299 19.2079 60.7472C19.2079 61.2644 19.4018 61.7633 19.7522 62.1475C20.1026 62.5316 20.5846 62.7737 21.105 62.827H42.0975C42.6179 62.7737 43.0999 62.5316 43.4503 62.1475C43.8007 61.7633 43.9946 61.2644 43.9946 60.7472C43.9946 60.2299 43.8007 59.731 43.4503 59.3468C43.0999 58.9627 42.6179 58.7206 42.0975 58.6673H39.9825V54.5298C41.5116 54.6013 43.0379 54.3394 44.4532 53.7628C45.8685 53.1862 47.1383 52.3089 48.1725 51.1931C49.369 49.7753 50.1475 48.059 50.4225 46.2326H54.7875C56.9783 46.1749 59.0604 45.2767 60.5931 43.7281C62.1259 42.1795 62.9891 40.1021 63 37.9354V15.0904C62.9941 12.8916 62.1079 10.7846 60.5353 9.22985C58.9627 7.6751 56.8315 6.79905 54.6075 6.79318H50.4225V4.7022C50.4108 3.60256 49.9637 2.55123 49.1772 1.77363C48.3907 0.996028 47.3273 0.554057 46.215 0.54248H44.1C42.9877 0.554057 41.9243 0.996028 41.1378 1.77363C40.3513 2.55123 39.9042 3.60256 39.8925 4.7022V6.79318H16.8075V4.7022C16.7958 3.60256 16.3487 2.55123 15.5622 1.77363C14.7757 0.996028 13.7123 0.554057 12.6 0.54248H10.5075Z" fill="#AFAFAF"/>
</svg>
